<svg xmlns="http://www.w3.org/2000/svg" xmlns:xlink="http://www.w3.org/1999/xlink" fill="none" version="1.1" width="72" height="36" viewBox="0 0 72 36"><defs><linearGradient x1="0.5" y1="0" x2="0.5" y2="1" id="master_svg0_1_0469"><stop offset="0%" stop-color="#78FFE8" stop-opacity="1"/><stop offset="100%" stop-color="#3D3D3D" stop-opacity="0"/></linearGradient></defs><g><path d="M23.8782,34.1757Q20.5203,36,15.1237,36Q8.16815,36,4.07741,31.3024Q0,26.5895,0,18.7449Q0,10.4899,4.55711,5.24493Q9.11421,0,16.323,0Q20.8401,0,23.8782,1.32264L23.8782,8.46791Q20.7468,6.52196,16.776,6.52196Q12.2456,6.52196,9.52728,9.76013Q6.82233,12.9831,6.82233,18.1976Q6.82233,23.2753,9.39404,26.3767Q11.9657,29.478,16.3629,29.478Q20.4803,29.478,23.8782,27.5321L23.8782,34.1757ZM27.2893,18.4561Q27.2893,10.277,31.4867,5.13851Q35.684,0,42.573,0Q49.1421,0,53.1396,4.97128Q57.1371,9.92736,57.1371,17.7264Q57.1371,25.8598,52.9797,30.9375Q48.8223,36,42.0799,36Q35.5108,36,31.3934,31.0895Q27.2893,26.1791,27.2893,18.4561ZM34.1117,18.0456Q34.1117,23.0777,36.2703,26.2855Q38.4289,29.478,42.1999,29.478Q46.0374,29.478,48.1694,26.4223Q50.3147,23.3514,50.3147,18.1824Q50.3147,12.7855,48.236,9.65372Q46.1574,6.52196,42.3731,6.52196Q38.5355,6.52196,36.3236,9.72973Q34.1117,12.9375,34.1117,18.0456ZM64.5609,32.4903L72,32.4903L72,36L60.3046,36L60.3046,34.4971Q60.3046,32.916,60.8147,31.6129Q61.3249,30.3012,62.2157,29.1718Q63.1142,28.0425,65.0025,26.5309Q66.7233,25.0714,67.4086,23.9421Q68.1015,22.8041,68.1015,21.5357Q68.1015,18.8079,65.5508,18.8079Q63.3122,18.8079,61.2792,20.8929L61.2792,17.14Q63.5482,15.4286,66.3807,15.4286Q68.9771,15.4286,70.4848,16.9749Q72,18.5212,72,21.2403Q72,22.7519,71.5508,23.9768Q71.1091,25.2017,70.264,26.2703Q69.4264,27.3388,67.5761,28.8417Q65.7868,30.3098,65.17,31.1091Q64.5609,31.8996,64.5609,32.4903Z" fill="url(#master_svg0_1_0469)" fill-opacity="1"/></g></svg>