<svg xmlns="http://www.w3.org/2000/svg" xmlns:xlink="http://www.w3.org/1999/xlink" fill="none" version="1.1" width="321.445068359375" height="42.456520080566406" viewBox="0 0 321.445068359375 42.456520080566406"><defs><clipPath id="master_svg0_6_26683"><rect x="0" y="0" width="321.445068359375" height="42.456520080566406" rx="0"/></clipPath></defs><g clip-path="url(#master_svg0_6_26683)"><g><path d="M57.44505310058594,35.712L58.30905310058594,29.556L48.733053100585934,29.556L50.92905310058594,13.824L60.50505310058594,13.824L60.79305310058594,11.772L59.605053100585934,10.404L67.81305310058593,10.404L67.30905310058594,13.824L76.92105310058594,13.824L74.72505310058594,29.556L65.14905310058595,29.556L64.86105310058593,31.608L75.80505310058594,31.608L77.31705310058594,30.276L76.56105310058594,35.712L57.44505310058594,35.712ZM66.84105310058594,17.244L66.48105310058594,19.98L69.90105310058594,19.98L70.29705310058594,17.244L66.84105310058594,17.244ZM58.77705310058594,26.136L59.17305310058594,23.4L55.75305310058594,23.4L55.35705310058594,26.136L58.77705310058594,26.136ZM69.03705310058594,26.136L69.43305310058594,23.4L65.97705310058593,23.4L65.61705310058593,26.136L69.03705310058594,26.136ZM56.221053100585934,19.98L59.641053100585935,19.98L60.001053100585935,17.244L56.617053100585935,17.244L56.221053100585934,19.98ZM98.48505310058593,15.876L111.58905310058594,15.876L109.06905310058593,33.948Q108.88905310058594,34.992,108.07905310058594,35.658Q107.26905310058594,36.324,106.26105310058594,36.324L99.13305310058594,36.324L102.37305310058593,32.976L104.28105310058594,19.296L96.64905310058595,19.296L87.50505310058594,36.324L80.66505310058594,36.324L89.80905310058594,19.296L82.39305310058595,19.296L82.86105310058593,15.876L91.64505310058594,15.876L94.05705310058593,11.376L93.22905310058593,10.404L101.43705310058594,10.404L98.48505310058593,15.876ZM132.46905310058594,36.324L135.70905310058595,32.976L137.94105310058592,17.1L131.46105310058596,17.1L131.92905310058592,13.644L138.40905310058594,13.644L138.73305310058595,11.412L137.86905310058594,10.404L144.92505310058596,10.404L144.45705310058594,13.644L145.89705310058594,13.644L145.42905310058592,17.1L143.98905310058592,17.1L141.61305310058594,33.948Q141.43305310058594,34.992,140.64105310058594,35.658Q139.84905310058593,36.324,138.80505310058595,36.324L132.46905310058594,36.324ZM129.73305310058595,22.824L114.50505310058594,22.824L115.00905310058593,19.368L119.65305310058594,19.368L119.97705310058593,17.1L116.12505310058594,17.1L116.59305310058593,13.644L120.48105310058594,13.644L120.76905310058594,11.556L119.58105310058593,10.404L126.99705310058594,10.404L126.52905310058594,13.644L130.20105310058594,13.644L129.73305310058595,17.1L126.02505310058594,17.1L125.70105310058594,19.368L130.23705310058594,19.368L129.73305310058595,22.824ZM118.71705310058594,26.028L119.04105310058594,23.796L125.08905310058594,23.796L124.76505310058593,26.028L128.40105310058595,26.028L127.89705310058594,29.412L124.29705310058594,29.412L123.97305310058594,31.788L128.50905310058593,31.464L128.04105310058594,34.992L112.63305310058594,36.072L113.17305310058593,32.472L117.85305310058594,32.184L118.24905310058594,29.412L114.28905310058593,29.412L114.79305310058594,26.028L118.71705310058594,26.028ZM135.42105310058594,29.556L130.88505310058594,29.556L131.38905310058595,19.404L135.92505310058596,19.404L135.42105310058594,29.556ZM163.39305310058592,15.912L159.61305310058594,24.66L160.76505310058593,32.94L157.59705310058592,32.94L157.20105310058594,29.664L155.97705310058592,32.976L152.91705310058592,32.976L152.44905310058596,36.252L146.90505310058592,36.252L150.25305310058593,12.42L149.20905310058595,11.052L177.86505310058592,11.052L174.62505310058594,34.2Q174.48105310058594,35.1,173.72505310058594,35.694Q172.96905310058594,36.288,172.10505310058593,36.288L165.84105310058592,36.288L169.29705310058594,33.012L169.29705310058594,32.94L166.05705310058593,32.94L165.66105310058595,29.7L164.40105310058595,32.976L160.76505310058593,32.976L164.58105310058593,24.408L163.42905310058592,15.912L166.84905310058593,15.912L167.13705310058594,19.44L168.28905310058593,15.912L171.60105310058594,15.912L168.14505310058593,24.588L169.33305310058594,32.76L171.88905310058593,14.472L155.50905310058593,14.472L155.29305310058595,15.912L158.53305310058593,15.912L158.71305310058594,19.44L159.86505310058595,15.912L163.39305310058592,15.912ZM153.09705310058592,31.536L156.19305310058593,24.408L155.25705310058595,16.128L153.09705310058592,31.536ZM192.80505310058595,36.324L196.33305310058594,11.232L211.59705310058592,11.232L210.76905310058595,17.1Q210.62505310058594,18.144,209.88705310058594,18.846Q209.14905310058595,19.548,208.21305310058594,19.548L204.39705310058594,19.548L205.80105310058593,18.216L206.30505310058595,14.508L200.83305310058594,14.508L199.93305310058594,20.772L210.19305310058593,20.772L209.43705310058593,25.992L206.48505310058593,30.096L209.36505310058592,36.324L205.04505310058593,36.324L203.85705310058594,33.804L202.05705310058593,36.324L192.80505310058595,36.324ZM185.56905310058593,36.288L187.26105310058594,34.308L188.23305310058595,27.468L185.56905310058593,27.468L183.98505310058593,36.288L179.37705310058593,36.288L183.58905310058594,12.42L182.97705310058595,11.232L195.25305310058593,11.232L192.08505310058592,33.912Q191.90505310058595,34.92,191.20305310058595,35.604Q190.50105310058595,36.288,189.63705310058594,36.288L185.56905310058593,36.288ZM199.46505310058595,24.048L197.77305310058594,36.252L202.20105310058594,30.132L199.71705310058593,24.696L204.03705310058595,24.696L204.82905310058592,26.46L206.12505310058594,24.696L206.23305310058595,24.048L199.46505310058595,24.048ZM186.18105310058593,24.048L188.70105310058594,24.048L189.13305310058593,20.952L186.75705310058595,20.952L186.18105310058593,24.048ZM187.36905310058594,17.532L189.63705310058594,17.532L190.03305310058593,14.652L187.90905310058594,14.652L187.36905310058594,17.532ZM234.16905310058593,23.4L229.63305310058593,21.816L224.66505310058594,23.4L214.36905310058594,23.4L214.83705310058593,19.98L221.38905310058593,19.98L222.97305310058593,19.476L220.48905310058595,18.612L215.05305310058594,18.612L219.08505310058592,11.376L218.25705310058595,10.404L226.46505310058595,10.404L225.70905310058595,11.772L244.71705310058593,11.772L243.96105310058593,17.244L236.94105310058595,19.476L238.38105310058594,19.98L244.24905310058594,19.98L243.78105310058595,23.4L234.16905310058593,23.4ZM212.53305310058593,36.324L220.05705310058593,28.872L214.29705310058594,28.872L214.76505310058593,25.452L223.51305310058595,25.452L225.27705310058593,23.724L232.80105310058593,23.724L231.03705310058595,25.452L242.80905310058594,25.452L241.62105310058593,33.948Q241.44105310058595,34.992,240.64905310058595,35.658Q239.85705310058594,36.324,238.81305310058593,36.324L231.68505310058595,36.324L234.92505310058593,32.976L235.50105310058595,28.872L227.58105310058593,28.872L220.05705310058593,36.324L212.53305310058593,36.324ZM224.66505310058594,15.192L230.24505310058595,17.172L236.40105310058593,15.192L224.66505310058594,15.192ZM277.18905310058597,11.088L276.72105310058595,14.508L266.42505310058596,14.508L265.2010531005859,23.4L276.82905310058595,23.4L276.36105310058593,26.82L264.73305310058595,26.82L263.40105310058595,36.324L256.5610531005859,36.324L257.8930531005859,26.82L246.26505310058593,26.82L246.73305310058595,23.4L258.36105310058593,23.4L259.5850531005859,14.508L249.36105310058593,14.508L249.82905310058592,11.088L277.18905310058597,11.088ZM269.01705310058594,15.876L275.17305310058595,15.876L272.9410531005859,22.032L266.78505310058597,22.032L269.01705310058594,15.876ZM257.20905310058595,22.032L251.05305310058594,22.032L250.54905310058595,15.876L256.7050531005859,15.876L257.20905310058595,22.032ZM308.68905310058597,23.4L306.96105310058596,35.604L280.501053100586,35.604L282.22905310058593,23.4L308.68905310058597,23.4ZM306.67305310058595,11.808L309.22905310058593,22.032L303.39705310058594,22.032L303.25305310058593,21.492L282.40905310058594,21.492L282.76905310058595,18.9L287.953053100586,11.268L287.08905310058594,10.44L295.98105310058594,10.44L290.5810531005859,18.18L302.42505310058596,18.18L300.84105310058595,11.808L306.67305310058595,11.808ZM300.66105310058595,32.184L301.4170531005859,26.784L288.45705310058594,26.784L287.7010531005859,32.184L300.66105310058595,32.184Z" fill="#D1F8FD" fill-opacity="1"/></g><g><g><path d="M35.000003814697266,22.5Q35.000003814697266,22.9296,34.97890381469727,23.3587Q34.957803814697264,23.7878,34.91570381469727,24.2153Q34.87360381469727,24.6428,34.81060381469727,25.0678Q34.747603814697264,25.4927,34.663703814697264,25.9141Q34.57990381469727,26.3354,34.47550381469726,26.7521Q34.37120381469727,27.1689,34.24650381469726,27.58Q34.12170381469726,27.9911,33.97700381469726,28.3956Q33.83230381469726,28.8001,33.66790381469727,29.197Q33.50350381469727,29.5939,33.319803814697266,29.9822Q33.136103814697265,30.3706,32.933603814697264,30.7494Q32.73110381469726,31.1283,32.51030381469727,31.4968Q32.289403814697266,31.8653,32.050703814697265,32.2225Q31.812003814697267,32.5797,31.556103814697266,32.9247Q31.300203814697266,33.269800000000004,31.027703814697265,33.6019Q30.755103814697264,33.934,30.466603814697265,34.252300000000005Q30.178103814697266,34.5706,29.874403814697267,34.8744Q29.570603814697265,35.1781,29.252303814697267,35.4666Q28.934003814697267,35.7551,28.601903814697266,36.027699999999996Q28.269803814697266,36.300200000000004,27.924703814697267,36.5561Q27.579703814697265,36.812,27.222503814697266,37.0507Q26.865303814697267,37.2894,26.496803814697266,37.5103Q26.128303814697265,37.7311,25.749403814697267,37.9336Q25.370603814697265,38.1361,24.982203814697264,38.3198Q24.593903814697267,38.5035,24.197003814697265,38.6679Q23.800103814697266,38.8323,23.395603814697267,38.977Q22.991103814697265,39.1217,22.580003814697264,39.2465Q22.168903814697266,39.3712,21.752203814697264,39.4755Q21.335403814697266,39.5799,20.914103814697267,39.6637Q20.492703814697265,39.7476,20.067803814697264,39.8106Q19.642803814697267,39.8736,19.215303814697265,39.9157Q18.787803814697266,39.9578,18.358703814697265,39.9789Q17.929603814697266,40,17.500003814697266,40Q17.070403814697265,40,16.641303814697267,39.9789Q16.212203814697265,39.9578,15.784703814697266,39.9157Q15.357203814697266,39.8736,14.932203814697266,39.8106Q14.507303814697266,39.7476,14.085903814697266,39.6637Q13.664603814697266,39.5799,13.247803814697265,39.4755Q12.831103814697265,39.3712,12.420003814697266,39.2465Q12.008903814697266,39.1217,11.604403814697266,38.977Q11.199903814697265,38.8323,10.803003814697266,38.6679Q10.406103814697266,38.5035,10.017803814697265,38.3198Q9.629433814697265,38.1361,9.250563814697266,37.9336Q8.871683814697265,37.7311,8.503203814697265,37.5103Q8.134723814697265,37.2894,7.777523814697266,37.0507Q7.420323814697266,36.812,7.075263814697266,36.5561Q6.730203814697266,36.300200000000004,6.398123814697265,36.027699999999996Q6.066033814697265,35.7551,5.747723814697266,35.4666Q5.429403814697266,35.1781,5.125633814697266,34.8744Q4.821863814697266,34.5706,4.533353814697266,34.252300000000005Q4.244853814697265,33.934,3.9723238146972655,33.6019Q3.6997838146972657,33.269800000000004,3.4438738146972656,32.9247Q3.1879538146972655,32.5797,2.9492838146972655,32.2225Q2.7106138146972656,31.8653,2.4897538146972655,31.4968Q2.2688938146972655,31.1283,2.0663838146972657,30.7494Q1.8638738146972655,30.3706,1.6801938146972657,29.9822Q1.4965138146972656,29.5939,1.3321138146972655,29.197Q1.1677138146972657,28.8001,1.0229838146972656,28.3956Q0.8782548146972656,27.9911,0.7535478146972656,27.58Q0.6288408146972656,27.1689,0.5244568146972656,26.7522Q0.4200718146972656,26.3354,0.3362618146972656,25.9141Q0.2524508146972656,25.4927,0.18941481469726562,25.0678Q0.1263798146972656,24.6428,0.08427111469726563,24.2153Q0.04216281469726563,23.7878,0.021083314697265626,23.3587Q0.000003814697265625,22.9296,0.000003814697265625,22.5Q0.000003814697265625,22.0704,0.021083314697265626,21.6413Q0.04216281469726563,21.2122,0.08427111469726563,20.7847Q0.1263798146972656,20.3572,0.18941481469726562,19.9322Q0.2524508146972656,19.5073,0.3362618146972656,19.085900000000002Q0.4200718146972656,18.6646,0.5244568146972656,18.247799999999998Q0.6288408146972656,17.8311,0.7535478146972656,17.42Q0.8782548146972656,17.0089,1.0229838146972656,16.6044Q1.1677138146972657,16.1999,1.3321138146972655,15.803Q1.4965138146972656,15.4061,1.6801938146972657,15.0178Q1.8638738146972655,14.62943,2.0663838146972657,14.25056Q2.2688938146972655,13.87168,2.4897538146972655,13.5032Q2.7106138146972656,13.13472,2.9492838146972655,12.777519999999999Q3.1879538146972655,12.42032,3.4438738146972656,12.07526Q3.6997838146972657,11.7302,3.9723238146972655,11.398119999999999Q4.244853814697265,11.06603,4.533353814697266,10.747720000000001Q4.821863814697266,10.429400000000001,5.125633814697266,10.125630000000001Q5.429403814697266,9.821860000000001,5.747723814697266,9.53335Q6.066033814697265,9.24485,6.398123814697265,8.97232Q6.730203814697266,8.69978,7.075263814697266,8.44387Q7.420323814697266,8.18795,7.777523814697266,7.94928Q8.134723814697265,7.71061,8.503203814697265,7.48975Q8.871683814697265,7.26889,9.250563814697266,7.0663800000000005Q9.629433814697265,6.86387,10.017803814697265,6.68019Q10.406103814697266,6.49651,10.803003814697266,6.33211Q11.199903814697265,6.16771,11.604403814697266,6.0229800000000004Q12.008903814697266,5.878251,12.420003814697266,5.753544Q12.831103814697265,5.628837,13.247803814697265,5.524453Q13.664603814697266,5.420068,14.085903814697266,5.336258Q14.507303814697266,5.252447,14.932203814697266,5.189411Q15.357203814697266,5.126376,15.784703814697266,5.0842673Q16.212203814697265,5.042159,16.641303814697267,5.0210795Q17.070403814697265,5,17.500003814697266,5Q17.929603814697266,5,18.358703814697265,5.0210795Q18.787803814697266,5.042159,19.215303814697265,5.0842673Q19.642803814697267,5.126376,20.067803814697264,5.189411Q20.492703814697265,5.252447,20.914103814697267,5.336258Q21.335403814697266,5.420068,21.752103814697264,5.524453Q22.168903814697266,5.628837,22.580003814697264,5.753544Q22.991103814697265,5.878251,23.395603814697267,6.0229800000000004Q23.800103814697266,6.16771,24.197003814697265,6.33211Q24.593903814697267,6.49651,24.982203814697264,6.68019Q25.370603814697265,6.86387,25.749403814697267,7.0663800000000005Q26.128303814697265,7.26889,26.496803814697266,7.48975Q26.865303814697267,7.71061,27.222503814697266,7.94928Q27.579703814697265,8.18795,27.924703814697267,8.44387Q28.269803814697266,8.69978,28.601903814697266,8.97232Q28.934003814697267,9.24485,29.252303814697267,9.53335Q29.570603814697265,9.821860000000001,29.874403814697267,10.125630000000001Q30.178103814697266,10.429400000000001,30.466603814697265,10.747720000000001Q30.755103814697264,11.06603,31.027703814697265,11.398119999999999Q31.300203814697266,11.7302,31.556103814697266,12.07526Q31.812003814697267,12.42032,32.050703814697265,12.777519999999999Q32.289403814697266,13.13472,32.51030381469727,13.5032Q32.73110381469726,13.87168,32.933603814697264,14.25056Q33.136103814697265,14.62943,33.319803814697266,15.0178Q33.50350381469727,15.4061,33.66790381469727,15.803Q33.83230381469726,16.1999,33.97700381469726,16.6044Q34.12170381469726,17.0089,34.24650381469726,17.42Q34.37120381469727,17.8311,34.47550381469726,18.247799999999998Q34.57990381469727,18.6646,34.663703814697264,19.085900000000002Q34.747603814697264,19.5073,34.81060381469727,19.9322Q34.87360381469727,20.3572,34.91570381469727,20.7847Q34.957803814697264,21.2122,34.97890381469727,21.6413Q35.000003814697266,22.0704,35.000003814697266,22.5Z" fill="#B1FFFF" fill-opacity="1"/></g><g><path d="M17.489901714515685,6.458343505859375C26.406801714515687,6.458343505859375,33.630601714515684,13.637833505859376,33.630601714515684,22.500043505859374C33.630601714515684,31.362143505859375,26.406801714515687,38.541643505859376,17.489901714515685,38.541643505859376C8.573101714515687,38.429443505859375,1.462201714515686,31.250043505859374,1.462201714515686,22.387843505859376C1.462201714515686,13.525653505859374,8.573101714515687,6.458343505859375,17.489901714515685,6.458343505859375Z" fill="#0E5061" fill-opacity="1"/></g><g><path d="M27.781793671417237,22.50002824707031L17.546393671417235,14.236108247070312L7.310993671417236,22.50002824707031L7.310993671417236,19.097218247070312L17.546393671417235,10.833328247070312L27.781793671417237,19.097218247070312L27.781793671417237,22.50002824707031ZM25.222893671417236,30.277728247070314L27.781793671417237,30.277728247070314L27.781793671417237,32.70832824707031L7.310993671417236,32.70832824707031L7.310993671417236,30.277728247070314L9.753533671417237,30.277728247070314L9.753533671417237,22.256928247070313L17.430093671417236,16.180548247070313L25.106593671417237,22.256928247070313L25.106593671417237,30.277728247070314L25.222893671417236,30.277728247070314ZM21.38469367141724,22.98612824707031Q21.268293671417236,22.743028247070313,21.035693671417235,22.743028247070313L18.825793671417237,22.743028247070313L19.407393671417235,19.826388247070312C19.407393671417235,19.704858247070312,19.407393671417235,19.461798247070313,19.291093671417237,19.461798247070313C19.174693671417238,19.340268247070313,19.174693671417238,19.340268247070313,19.058393671417235,19.340268247070313Q18.942093671417236,19.340268247070313,18.825793671417237,19.461798247070313L18.709493671417235,19.583328247070312L14.522293671417236,24.809028247070312C14.405973671417236,24.930528247070313,14.405973671417236,25.05202824707031,14.522293671417236,25.17362824707031C14.522293671417236,25.295128247070313,14.638603671417236,25.416628247070314,14.871223671417237,25.416628247070314L16.73220367141724,25.416628247070314L15.685403671417236,28.57642824707031Q15.685403671417236,28.819428247070313,15.801713671417236,28.940928247070314C15.918023671417236,29.06252824707031,16.034333671417237,29.06252824707031,16.150643671417235,29.06252824707031L16.383263671417236,29.06252824707031Q16.499583671417234,29.06252824707031,16.499583671417234,28.940928247070314L21.500993671417234,23.472228247070312L21.38469367141724,22.98612824707031Z" fill="#B0FEFE" fill-opacity="1"/></g></g></g></svg>