<svg xmlns="http://www.w3.org/2000/svg" xmlns:xlink="http://www.w3.org/1999/xlink" fill="none" version="1.1" width="72" height="36" viewBox="0 0 72 36"><defs><linearGradient x1="0.5" y1="0" x2="0.5" y2="1" id="master_svg0_1_0403"><stop offset="0%" stop-color="#79F3E0" stop-opacity="1"/><stop offset="99.99993443489075%" stop-color="#79F3E0" stop-opacity="0"/></linearGradient></defs><g><path d="M12.4425,36Q8.09793,36,4.85876,33.6506Q1.61959,31.2872,0,27.4045L6.00275,24.3376Q6.83825,26.6729,8.53497,27.8828Q10.2317,29.0926,12.4811,29.0926Q14.8077,29.0926,16.183,28.1501Q17.5712,27.1934,17.5712,25.6741Q17.5712,24.5909,17.0571,23.8875Q16.5558,23.17,15.2832,22.5651Q14.0236,21.9601,11.6199,21.2286Q8.45784,20.2298,6.36266,19.245Q4.26748,18.2462,2.66075,16.1501Q1.06687,14.0539,1.06687,10.5932Q1.06687,7.56858,2.62219,5.14889Q4.19036,2.72919,6.88967,1.36459Q9.60184,0,12.8796,0Q21.1318,0,24.7694,8.21571L18.8438,11.3669Q17.8155,9.03165,16.3244,7.97655Q14.8462,6.92145,12.8024,6.92145Q10.823,6.92145,9.4733,7.87808Q8.1365,8.82063,8.1365,10.1993Q8.1365,11.3669,8.68921,12.0844Q9.24193,12.8019,10.4888,13.3927Q11.7356,13.9695,14.1778,14.7011Q17.3013,15.6436,19.3965,16.6284Q21.4917,17.5991,23.0598,19.6952Q24.6409,21.7913,24.6409,25.238Q24.6409,28.4877,23.0855,30.9355Q21.5302,33.3693,18.7666,34.6776Q16.0031,36,12.4425,36ZM42.7519,36Q38.2917,36,34.9882,33.8054Q31.6976,31.5967,29.9109,27.5592Q28.1371,23.5076,28.1371,18.0211Q28.1371,12.5346,29.9109,8.483Q31.6976,4.41735,34.9882,2.20867Q38.2917,0,42.7519,0Q47.2122,0,50.49,2.20867Q53.7677,4.41735,55.5415,8.483Q57.3154,12.5346,57.3154,18.0211Q57.3154,23.5076,55.5415,27.5592Q53.7677,31.5967,50.49,33.8054Q47.2122,36,42.7519,36ZM42.7519,28.9097Q46.2225,28.9097,48.2277,25.9836Q50.2458,23.0434,50.2458,18.0211Q50.2458,13.0129,48.2277,10.0586Q46.2225,7.09027,42.7519,7.09027Q39.2686,7.09027,37.2376,10.0586Q35.2067,13.0129,35.2067,18.0211Q35.2067,23.0434,37.2376,25.9836Q39.2686,28.9097,42.7519,28.9097ZM64.8239,31.3736L72,31.3736L72,34.6213L60.718,34.6213L60.718,33.2306Q60.718,31.7675,61.2101,30.5617Q61.7022,29.3478,62.5616,28.3028Q63.4283,27.2577,65.2499,25.859Q66.9099,24.5085,67.5709,23.4634Q68.2393,22.4103,68.2393,21.2366Q68.2393,18.7124,65.7787,18.7124Q63.6193,18.7124,61.6581,20.6418L61.6581,17.169Q63.847,15.5853,66.5793,15.5853Q69.084,15.5853,70.5383,17.0162Q72,18.4472,72,20.9633Q72,22.3621,71.5666,23.4956Q71.1406,24.629,70.3253,25.6178Q69.5174,26.6066,67.7325,27.9973Q66.0064,29.3559,65.4115,30.0955Q64.8239,30.827,64.8239,31.3736Z" fill="url(#master_svg0_1_0403)" fill-opacity="1"/></g></svg>