<svg xmlns="http://www.w3.org/2000/svg" xmlns:xlink="http://www.w3.org/1999/xlink" fill="none" version="1.1" width="234" height="234" viewBox="0 0 234 234"><defs><filter id="master_svg0_1_2253" filterUnits="objectBoundingBox" color-interpolation-filters="sRGB" x="-40" y="-40" width="254" height="254"><feFlood flood-opacity="0" result="BackgroundImageFix"/><feColorMatrix in="SourceAlpha" type="matrix" values="0 0 0 0 0 0 0 0 0 0 0 0 0 0 0 0 0 0 127 0"/><feOffset dy="0" dx="0"/><feGaussianBlur stdDeviation="10"/><feColorMatrix type="matrix" values="0 0 0 0 0.13333334028720856 0 0 0 0 0.7411764860153198 0 0 0 0 0.8235294222831726 0 0 0 0.800000011920929 0"/><feBlend mode="normal" in2="BackgroundImageFix" result="effect1_dropShadow"/><feBlend mode="normal" in="SourceGraphic" in2="effect1_dropShadow" result="shape"/></filter></defs><g><g><path d="M158.52420242919922,61.864382510375975Q158.52720242919924,61.866982510375976,158.53020242919922,61.86968251037598Q158.66650242919923,61.99138251037598,158.82250242919923,62.08628251037598Q158.9786024291992,62.18128251037598,159.14940242919923,62.24638251037598Q159.3201024291992,62.31158251037598,159.49980242919924,62.344682510375975Q159.6795024291992,62.37778251037598,159.86220242919921,62.37778251037598Q159.96040242919923,62.37778251037598,160.0582024291992,62.36818251037597Q160.15600242919922,62.35848251037598,160.2524024291992,62.33938251037598Q160.34870242919922,62.32018251037597,160.44280242919922,62.29168251037598Q160.5368024291992,62.26318251037598,160.62760242919921,62.225482510375976Q160.7183024291992,62.18788251037598,160.80500242919922,62.141582510375976Q160.89160242919922,62.09528251037598,160.97330242919924,62.04068251037597Q161.05500242919922,61.98608251037598,161.1310024291992,61.92378251037598Q161.2069024291992,61.86148251037598,161.2764024291992,61.79198251037597Q161.3459024291992,61.722482510375976,161.4082024291992,61.64658251037598Q161.47050242919923,61.57058251037598,161.52510242919922,61.48888251037597Q161.57970242919922,61.407182510375975,161.62600242919922,61.32058251037598Q161.67230242919922,61.23388251037598,161.70990242919922,61.14318251037598Q161.74750242919922,61.05238251037598,161.77610242919923,60.958382510375976Q161.80460242919924,60.86428251037598,161.82380242919922,60.76798251037597Q161.84290242919923,60.67158251037598,161.8526024291992,60.57378251037598Q161.86220242919921,60.47598251037598,161.86220242919921,60.37778251037598Q161.86220242919921,60.16648251037598,161.81800242919923,59.95988251037598Q161.7739024291992,59.753282510375975,161.6875024291992,59.56038251037597Q161.60120242919922,59.367582510375975,161.47650242919923,59.19708251037598Q161.35170242919924,59.02648251037598,161.19410242919923,58.885782510375975Q161.19120242919922,58.883182510375974,161.1881024291992,58.88038251037598Q149.3886024291992,48.348132510375976,133.39270242919923,45.401503510375974Q117.53780242919922,42.48084251037598,97.62105142919921,47.04508251037598Q97.45672342919922,47.082741510375975,97.30101842919922,47.14737651037598Q97.14531342919922,47.21201151037597,97.00262242919922,47.30180251037598Q96.85993242919922,47.391582510375976,96.73429242919921,47.50399251037598Q96.60865242919922,47.61640251037598,96.50359242919922,47.74825251037598Q96.39854242919922,47.88010251037598,96.31704242919922,48.027682510375975Q96.23553242919922,48.17526251037598,96.17989242919921,48.33440251037597Q96.12424242919921,48.493542510375974,96.09602242919922,48.659752510375974Q96.06780242919922,48.82596251037597,96.06780242919922,48.994552510375975Q96.06780242919922,49.092802510375975,96.07743242919922,49.190582510375975Q96.08706242919922,49.288362510375975,96.10623242919922,49.384732510375976Q96.12540242919921,49.48109251037597,96.15392242919921,49.57511251037597Q96.18244242919921,49.66914251037598,96.22004242919922,49.759912510375976Q96.25764242919922,49.85069251037598,96.30396242919922,49.93734251037598Q96.35027242919922,50.023992510375976,96.40486242919921,50.105692510375974Q96.45945242919922,50.187382510375976,96.52178242919922,50.263332510375974Q96.58411242919922,50.33928251037598,96.65359242919922,50.40876251037598Q96.72306242919922,50.47824251037598,96.79901242919922,50.54057251037597Q96.87496242919921,50.602902510375976,96.95666242919921,50.65748251037598Q97.03835242919922,50.712072510375975,97.12500942919922,50.75839251037598Q97.21166142919922,50.804702510375975,97.30243542919922,50.84230251037597Q97.39321042919921,50.87990251037598,97.48723342919922,50.908432510375974Q97.58125642919921,50.936952510375974,97.67762142919922,50.95612251037598Q97.77398742919922,50.975282510375976,97.87176842919922,50.98491251037598Q97.96954872919922,50.994552510375975,98.06780242919922,50.994552510375975Q98.29406842919921,50.994552510375975,98.51461442919921,50.944002510375974L98.51607142919922,50.94366251037598Q117.62640242919922,46.564471510375974,132.66810242919922,49.33531251037598Q147.56120242919923,52.07880251037598,158.52420242919922,61.864382510375975Z" fill-rule="evenodd" fill="#79E5CF" fill-opacity="1"/></g><g transform="matrix(0,1,-1,0,259.1926956176758,-118.9228744506836)"><path d="M227.5845850341797,72.84797058349609Q246.28678503417967,69.8953785834961,265.9662850341797,79.1857805834961Q266.3716850341797,79.37719058349609,266.82008503417967,79.37719058349609Q266.9182850341797,79.37719058349609,267.0160850341797,79.3675605834961Q267.1138850341797,79.3579305834961,267.2102850341797,79.3387605834961Q267.3065850341797,79.3195905834961,267.4005850341797,79.2910705834961Q267.49468503417967,79.2625505834961,267.5853850341797,79.2249505834961Q267.6761850341797,79.1873505834961,267.7628850341797,79.14103058349609Q267.8494850341797,79.0947205834961,267.9311850341797,79.0401305834961Q268.0128850341797,78.98554058349609,268.08888503417967,78.92321058349609Q268.16478503417966,78.8608805834961,268.2342850341797,78.7914005834961Q268.30378503417967,78.72193058349609,268.3660850341797,78.6459805834961Q268.42838503417966,78.57003058349609,268.4829850341797,78.4883305834961Q268.5375850341797,78.4066405834961,268.5838850341797,78.31998058349609Q268.6301850341797,78.2333305834961,268.6677850341797,78.14256058349609Q268.7053850341797,78.0517805834961,268.7339850341797,77.9577605834961Q268.7624850341797,77.8637405834961,268.7816850341797,77.76737058349609Q268.8007850341797,77.6710105834961,268.8104850341797,77.5732205834961Q268.82008503417967,77.4754505834961,268.82008503417967,77.37719058349609Q268.82008503417967,77.2357405834961,268.80018503417966,77.0957005834961Q268.78028503417966,76.9556505834961,268.7407850341797,76.81981058349609Q268.7013850341797,76.68396058349609,268.6432850341797,76.5550105834961Q268.58508503417966,76.4260705834961,268.5093850341797,76.30659058349609Q268.4336850341797,76.18711058349609,268.34188503417965,76.07948058349609Q268.2500850341797,75.97185058349609,268.1440850341797,75.8782105834961Q268.0380850341797,75.78456058349609,267.9199850341797,75.7067705834961Q267.8017850341797,75.62899058349609,267.6738850341797,75.56860058349609Q246.8801850341797,65.75216058349609,226.96088503417968,68.89690058349609Q207.16608503417967,72.02199058349609,187.8685150341797,86.33761058349609Q187.8675450341797,86.3383105834961,187.86657503417968,86.3391105834961L187.86615503417968,86.33941058349609Q187.6780750341797,86.47891058349609,187.52731503417968,86.6581105834961Q187.3765550341797,86.83731058349609,187.2712750341797,87.04651058349609Q187.1659950341797,87.2557105834961,187.1118850341797,87.4836105834961Q187.0577850341797,87.71141058349609,187.0577850341797,87.94561058349609Q187.0577850341797,88.04391058349609,187.06741503417967,88.14161058349609Q187.0770450341797,88.2394105834961,187.0962150341797,88.3358105834961Q187.1153850341797,88.4322105834961,187.14390503417968,88.5262105834961Q187.1724250341797,88.62021058349609,187.2100250341797,88.71101058349609Q187.2476250341797,88.80181058349609,187.2939450341797,88.8884105834961Q187.34025503417968,88.97511058349609,187.3948450341797,89.05681058349609Q187.4494350341797,89.1384105834961,187.5117650341797,89.21441058349609Q187.5740950341797,89.2904105834961,187.6435750341797,89.3598105834961Q187.7130450341797,89.42931058349609,187.7889950341797,89.4916105834961Q187.8649450341797,89.5540105834961,187.94664503417968,89.6086105834961Q188.0283350341797,89.66311058349609,188.1149920341797,89.7095105834961Q188.20164403417968,89.7558105834961,188.2924180341797,89.7934105834961Q188.3831930341797,89.8310105834961,188.4772160341797,89.85951058349609Q188.57123903417968,89.8880105834961,188.66760403417967,89.9072105834961Q188.7639700341797,89.9264105834961,188.8617510341797,89.9360105834961Q188.9595313341797,89.94561058349609,189.0577850341797,89.94561058349609Q189.37973503417967,89.94561058349609,189.68542103417968,89.84461058349609Q189.9911070341797,89.74351058349609,190.24964503417968,89.55171058349609Q190.25082503417968,89.55081058349609,190.25222503417967,89.5498105834961Q208.76048503417968,75.81981058349609,227.5845850341797,72.84797058349609Z" fill-rule="evenodd" fill="#7EBFDE" fill-opacity="1"/></g><g transform="matrix(0.9978771805763245,0.06437870860099792,-0.06438091397285461,0.9979726076126099,3.512487826565689,-3.934938294675817)"><path d="M85.40806964721679,54.147158553466795Q85.6119696472168,54.0098985534668,85.7765696472168,53.827338553466795Q85.9411696472168,53.644788553466796,86.0566696472168,53.4278085534668Q86.1721696472168,53.210829553466795,86.23166964721679,52.9723405534668Q86.2912696472168,52.7338525534668,86.2912696472168,52.4880485534668Q86.2912696472168,52.389794853466796,86.2815696472168,52.2920145534668Q86.27196964721679,52.194233553466795,86.2527696472168,52.0978675534668Q86.2336696472168,52.0015025534668,86.20506964721679,51.9074795534668Q86.1765696472168,51.8134565534668,86.1389696472168,51.7226815534668Q86.1013696472168,51.631907553466796,86.0550696472168,51.545255553466795Q86.0087696472168,51.4585985534668,85.9541696472168,51.3769085534668Q85.8995696472168,51.2952085534668,85.8372696472168,51.219258553466794Q85.7748696472168,51.143308553466795,85.7054696472168,51.0738385534668Q85.6359696472168,51.004358553466794,85.5599696472168,50.9420285534668Q85.4840696472168,50.879698553466795,85.4023696472168,50.8251085534668Q85.32066964721679,50.7705185534668,85.2339696472168,50.724208553466795Q85.14736964721679,50.677888553466794,85.0565696472168,50.640288553466796Q84.9657696472168,50.6026885534668,84.8717696472168,50.5741685534668Q84.7777696472168,50.5456485534668,84.6813696472168,50.526478553466795Q84.5850696472168,50.5073085534668,84.48726964721679,50.4976785534668Q84.3894696472168,50.4880485534668,84.2912696472168,50.4880485534668Q83.99276964721679,50.4880485534668,83.7073696472168,50.575168553466796Q83.4219696472168,50.662288553466794,83.17436964721679,50.8289385534668L83.1740696472168,50.8291185534668Q83.17256964721679,50.8301185534668,83.1711696472168,50.8311285534668Q76.01246964721679,55.650448553466795,70.5177396472168,60.790628553466796Q64.9888196472168,65.9628485534668,61.1398496472168,71.4642485534668Q61.1378096472168,71.4671485534668,61.13577964721679,71.4701485534668Q60.9594896472168,71.7221485534668,60.8670796472168,72.0154485534668Q60.7746696472168,72.30884855346679,60.7746696472168,72.6164485534668Q60.7746696472168,72.7146485534668,60.7842996472168,72.8124485534668Q60.7939296472168,72.9102485534668,60.813099647216795,73.00664855346679Q60.8322696472168,73.1029485534668,60.8607896472168,73.1969485534668Q60.8893096472168,73.2910485534668,60.926909647216796,73.38174855346679Q60.964509647216794,73.4725485534668,61.010829647216795,73.5592485534668Q61.0571396472168,73.6458485534668,61.1117296472168,73.72754855346679Q61.166319647216795,73.8092485534668,61.2286496472168,73.8852485534668Q61.290979647216794,73.9611485534668,61.3604596472168,74.03064855346679Q61.429929647216795,74.1001485534668,61.505879647216794,74.16244855346679Q61.5818296472168,74.2247485534668,61.6635296472168,74.2793485534668Q61.7452196472168,74.3339485534668,61.831876647216795,74.3802485534668Q61.918528647216796,74.4265485534668,62.0093026472168,74.4641485534668Q62.1000776472168,74.5017485534668,62.1941006472168,74.5302485534668Q62.2881236472168,74.55884855346679,62.3844886472168,74.5779485534668Q62.480854647216795,74.5971485534668,62.5786356472168,74.6067485534668Q62.676415947216796,74.6164485534668,62.7746696472168,74.6164485534668Q63.015940647216794,74.6164485534668,63.250290647216794,74.5590485534668Q63.484639647216795,74.5016485534668,63.6986216472168,74.39024855346679Q63.912599647216794,74.2787485534668,64.0939396472168,74.1195485534668Q64.27527964721679,73.96044855346679,64.4135596472168,73.76274855346679L64.4136296472168,73.76264855346679Q64.41500964721679,73.7606485534668,64.4163896472168,73.7586485534668Q68.02599964721679,68.5990485534668,73.2503696472168,63.7117485534668Q78.5123696472168,58.7891985534668,85.40716964721679,54.1477685534668L85.40806964721679,54.147158553466795L85.40806964721679,54.147158553466795Z" fill-rule="evenodd" fill="#BFE4FF" fill-opacity="1"/></g><g transform="matrix(0.9996142387390137,0.02777438424527645,-0.02776496484875679,0.9996144771575928,2.358607883107126,-1.2851243362508313)"><path d="M56.04060688232422,84.97567669506836Q56.16190688232422,84.64343669506836,56.16190688232422,84.28974515206836Q56.16190688232422,84.19149149506836,56.152276882324216,84.09371069506835Q56.142646882324215,83.99593069506835,56.12347688232422,83.89956469506836Q56.10430688232422,83.80319869506836,56.075786882324216,83.70917569506835Q56.04726688232422,83.61515269506836,56.00966688232422,83.52437869506836Q55.97206688232422,83.43360369506836,55.92574688232422,83.34695169506836Q55.87943688232422,83.26030369506836,55.824846882324216,83.17860369506836Q55.77025688232422,83.09691369506837,55.707926882324216,83.02095369506836Q55.64559688232422,82.94500369506837,55.57612688232422,82.87553369506836Q55.50664688232422,82.80605369506836,55.43069688232422,82.74372369506835Q55.35474688232422,82.68139369506837,55.273046882324216,82.62680369506836Q55.19135688232422,82.57222369506836,55.104706882324216,82.52590369506837Q55.01804688232422,82.47958369506836,54.92727688232422,82.44198369506836Q54.83649688232422,82.40438369506836,54.74247688232422,82.37586369506836Q54.64845688232422,82.34734369506836,54.55208688232422,82.32817369506836Q54.45572688232422,82.30900369506836,54.35794688232422,82.29937369506835Q54.26016688232422,82.28974369506835,54.16190688232422,82.28974369506835Q54.00901688232422,82.28974369506835,53.857906882324215,82.31298369506835Q53.70679688232422,82.33622369506836,53.56097688232422,82.38216369506836Q53.41515688232422,82.42809369506836,53.27800688232422,82.49566369506836Q53.14086688232422,82.56323369506836,53.01557688232422,82.65086369506835Q52.89029688232422,82.73849369506836,52.77979688232422,82.84414369506835Q52.669286882324215,82.94980369506835,52.57612688232422,83.07102369506836Q52.48295688232422,83.19224369506836,52.409306882324216,83.32622369506836Q52.33564688232422,83.46019869506836,52.28321688232422,83.60381369506835Q52.28276688232422,83.60505369506836,52.28230688232422,83.60629369506836Q41.87417688232422,112.11474369506836,47.29782288232422,134.51904369506838Q52.74742688232422,157.03054369506836,74.08211688232421,173.15404369506837Q96.64511688232422,190.20594369506836,128.72561688232423,186.71094369506835L128.7755168823242,186.70494369506838L128.82501688232423,186.69694369506834Q160.3901168823242,181.64654369506837,178.11911688232422,157.74034369506836Q178.12111688232423,157.73774369506836,178.1221168823242,157.73514369506836L178.1231168823242,157.73454369506834Q178.31511688232422,157.47604369506837,178.4151168823242,157.17054369506837Q178.5161168823242,156.86504369506838,178.5161168823242,156.54334369506836Q178.5161168823242,156.44504369506836,178.50711688232423,156.34734369506836Q178.4971168823242,156.24954369506835,178.47811688232423,156.15314369506837Q178.45911688232422,156.05674369506835,178.43011688232423,155.96274369506835Q178.4021168823242,155.86874369506836,178.36411688232423,155.77794369506836Q178.32711688232422,155.68714369506836,178.28011688232422,155.60054369506835Q178.23411688232423,155.51384369506837,178.17911688232422,155.43214369506836Q178.12511688232422,155.35054369506835,178.06211688232423,155.27454369506836Q178.00011688232422,155.19864369506837,177.93111688232423,155.12914369506836Q177.8611168823242,155.05964369506836,177.78511688232422,154.99734369506837Q177.70911688232422,154.93494369506834,177.6281168823242,154.88034369506835Q177.5461168823242,154.82584369506836,177.45911688232422,154.77944369506838Q177.3721168823242,154.73314369506835,177.28211688232423,154.69554369506835Q177.19111688232422,154.65794369506835,177.09711688232423,154.62944369506835Q177.0031168823242,154.60094369506837,176.90711688232423,154.58174369506835Q176.81011688232422,154.56264369506835,176.7121168823242,154.55294369506836Q176.61511688232423,154.54334369506836,176.5161168823242,154.54334369506836Q176.28211688232423,154.54334369506836,176.05411688232422,154.59744369506836Q175.82611688232421,154.65164369506834,175.6171168823242,154.75694369506834Q175.40811688232424,154.86224369506834,175.2291168823242,155.01314369506838Q175.0491168823242,155.16394369506835,174.91011688232422,155.35214369506838L174.90811688232424,155.35404369506836Q174.9071168823242,155.35604369506837,174.90611688232423,155.35794369506834Q158.1621168823242,177.93574369506837,128.24251688232422,182.73934369506836Q97.77271688232422,186.04394369506838,76.49381688232421,169.96294369506836Q56.29897688232422,154.70084369506836,51.18552688232422,133.57794369506837Q46.04638688232422,112.34884369506835,56.04060688232422,84.97567669506836Z" fill-rule="evenodd" fill="#2DBEEE" fill-opacity="1"/></g><g><ellipse cx="117.81307983398438" cy="117.81308174133301" rx="60.16822052001953" ry="60.16822052001953" fill="#27D7EF" fill-opacity="0.10000000149011612"/><ellipse cx="117.81307983398438" cy="117.81308174133301" rx="59.16822052001953" ry="59.16822052001953" fill-opacity="0" stroke-opacity="1" stroke="#7C8FA1" fill="none" stroke-width="2"/></g><g filter="url(#master_svg0_1_2253)"><ellipse cx="117" cy="117" rx="87" ry="87" fill="#27D7EF" fill-opacity="0.10000000149011612"/><ellipse cx="117" cy="117" rx="86" ry="86" fill-opacity="0" stroke-opacity="0.4000000059604645" stroke="#99FFF8" fill="none" stroke-width="2"/></g></g></svg>