<svg xmlns="http://www.w3.org/2000/svg" xmlns:xlink="http://www.w3.org/1999/xlink" fill="none" version="1.1" width="35" height="35" viewBox="0 0 35 35"><g><g><path d="M35,17.5Q35,17.9296,34.9789,18.3587Q34.9578,18.7878,34.9157,19.2153Q34.8736,19.6428,34.8106,20.0678Q34.7476,20.4927,34.6637,20.9141Q34.5799,21.3354,34.4755,21.7521Q34.3712,22.1689,34.2465,22.58Q34.1217,22.9911,33.977,23.3956Q33.8323,23.8001,33.6679,24.197Q33.5035,24.5939,33.3198,24.9822Q33.1361,25.3706,32.9336,25.7494Q32.7311,26.1283,32.5103,26.4968Q32.2894,26.8653,32.0507,27.2225Q31.812,27.5797,31.5561,27.9247Q31.3002,28.2698,31.0277,28.6019Q30.7551,28.934,30.4666,29.2523Q30.1781,29.5706,29.8744,29.8744Q29.5706,30.1781,29.2523,30.4666Q28.934,30.7551,28.6019,31.0277Q28.2698,31.3002,27.9247,31.5561Q27.5797,31.812,27.2225,32.0507Q26.8653,32.2894,26.4968,32.5103Q26.1283,32.7311,25.7494,32.9336Q25.3706,33.1361,24.9822,33.3198Q24.5939,33.5035,24.197,33.6679Q23.8001,33.8323,23.3956,33.977Q22.9911,34.1217,22.58,34.2465Q22.1689,34.3712,21.7522,34.4755Q21.3354,34.5799,20.9141,34.6637Q20.4927,34.7476,20.0678,34.8106Q19.6428,34.8736,19.2153,34.9157Q18.7878,34.9578,18.3587,34.9789Q17.9296,35,17.5,35Q17.0704,35,16.6413,34.9789Q16.2122,34.9578,15.7847,34.9157Q15.3572,34.8736,14.9322,34.8106Q14.5073,34.7476,14.0859,34.6637Q13.6646,34.5799,13.2478,34.4755Q12.8311,34.3712,12.42,34.2465Q12.0089,34.1217,11.6044,33.977Q11.1999,33.8323,10.803,33.6679Q10.4061,33.5035,10.0178,33.3198Q9.62943,33.1361,9.25056,32.9336Q8.87168,32.7311,8.5032,32.5103Q8.13472,32.2894,7.77752,32.0507Q7.42032,31.812,7.07526,31.5561Q6.7302,31.3002,6.39812,31.0277Q6.06603,30.7551,5.74772,30.4666Q5.4294,30.1781,5.12563,29.8744Q4.82186,29.5706,4.53335,29.2523Q4.24485,28.934,3.97232,28.6019Q3.69978,28.2698,3.44387,27.9247Q3.18795,27.5797,2.94928,27.2225Q2.71061,26.8653,2.48975,26.4968Q2.26889,26.1283,2.06638,25.7494Q1.86387,25.3706,1.68019,24.9822Q1.49651,24.5939,1.33211,24.197Q1.16771,23.8001,1.02298,23.3956Q0.878251,22.9911,0.753544,22.58Q0.628837,22.1689,0.524453,21.7522Q0.420068,21.3354,0.336258,20.9141Q0.252447,20.4927,0.189411,20.0678Q0.126376,19.6428,0.0842673,19.2153Q0.042159,18.7878,0.0210795,18.3587Q0,17.9296,0,17.5Q0,17.0704,0.0210795,16.6413Q0.042159,16.2122,0.0842673,15.7847Q0.126376,15.3572,0.189411,14.9322Q0.252447,14.5073,0.336258,14.0859Q0.420068,13.6646,0.524453,13.2478Q0.628837,12.8311,0.753544,12.42Q0.878251,12.0089,1.02298,11.6044Q1.16771,11.1999,1.33211,10.803Q1.49651,10.4061,1.68019,10.0178Q1.86387,9.62943,2.06638,9.25056Q2.26889,8.87168,2.48975,8.5032Q2.71061,8.13472,2.94928,7.77752Q3.18795,7.42032,3.44387,7.07526Q3.69978,6.7302,3.97232,6.39812Q4.24485,6.06603,4.53335,5.74772Q4.82186,5.4294,5.12563,5.12563Q5.4294,4.82186,5.74772,4.53335Q6.06603,4.24485,6.39812,3.97232Q6.7302,3.69978,7.07526,3.44387Q7.42032,3.18795,7.77752,2.94928Q8.13472,2.71061,8.5032,2.48975Q8.87168,2.26889,9.25056,2.06638Q9.62943,1.86387,10.0178,1.68019Q10.4061,1.49651,10.803,1.33211Q11.1999,1.16771,11.6044,1.02298Q12.0089,0.878251,12.42,0.753544Q12.8311,0.628837,13.2478,0.524453Q13.6646,0.420068,14.0859,0.336258Q14.5073,0.252447,14.9322,0.189411Q15.3572,0.126376,15.7847,0.0842673Q16.2122,0.042159,16.6413,0.0210795Q17.0704,0,17.5,0Q17.9296,0,18.3587,0.0210795Q18.7878,0.042159,19.2153,0.0842673Q19.6428,0.126376,20.0678,0.189411Q20.4927,0.252447,20.9141,0.336258Q21.3354,0.420068,21.7521,0.524453Q22.1689,0.628837,22.58,0.753544Q22.9911,0.878251,23.3956,1.02298Q23.8001,1.16771,24.197,1.33211Q24.5939,1.49651,24.9822,1.68019Q25.3706,1.86387,25.7494,2.06638Q26.1283,2.26889,26.4968,2.48975Q26.8653,2.71061,27.2225,2.94928Q27.5797,3.18795,27.9247,3.44387Q28.2698,3.69978,28.6019,3.97232Q28.934,4.24485,29.2523,4.53335Q29.5706,4.82186,29.8744,5.12563Q30.1781,5.4294,30.4666,5.74772Q30.7551,6.06603,31.0277,6.39812Q31.3002,6.7302,31.5561,7.07526Q31.812,7.42032,32.0507,7.77752Q32.2894,8.13472,32.5103,8.5032Q32.7311,8.87168,32.9336,9.25056Q33.1361,9.62943,33.3198,10.0178Q33.5035,10.4061,33.6679,10.803Q33.8323,11.1999,33.977,11.6044Q34.1217,12.0089,34.2465,12.42Q34.3712,12.8311,34.4755,13.2478Q34.5799,13.6646,34.6637,14.0859Q34.7476,14.5073,34.8106,14.9322Q34.8736,15.3572,34.9157,15.7847Q34.9578,16.2122,34.9789,16.6413Q35,17.0704,35,17.5Z" fill="#186FED" fill-opacity="1"/></g><g><path d="M22.622795560302734,27.00223515270996Q22.591645560302734,27.13575515270996,22.413615560302734,27.51851215270996C22.266745560302734,27.82561215270996,22.048665560302734,28.09710215270996,21.910692560302735,28.408642152709962C21.866186560302733,28.51101215270996,21.870636560302735,28.62672215270996,21.821679560302734,28.72909215270996C21.794975560302735,28.78250215270996,21.759370560302735,28.82255215270996,21.759370560302735,28.827002152709962C21.527935560302733,29.11630215270996,21.527935560302733,29.11630215270996,21.336557560302733,29.160802152709962C21.162981560302736,29.20086215270996,21.082869560302733,29.138552152709963,20.998307360302736,29.00948215270996C20.967152660302734,28.96497215270996,20.935998060302733,28.69348215270996,20.944899380302733,28.66233215270996L20.958251360302736,28.62227215270996C20.971603360302733,28.586672152709962,21.038363260302734,28.408642152709962,21.211939560302735,28.23507215270996C21.243093560302736,28.20391215270996,21.305402560302735,28.14160215270996,21.323205560302736,28.10155215270996C21.341008560302733,28.06149215270996,21.327656560302735,28.01698215270996,21.323205560302736,27.981382152709962C21.296501560302733,27.87456215270996,21.278698560302736,27.625332152709962,21.372162560302733,27.465104152709962C21.465626560302734,27.309331152709962,21.643653560302734,27.37164015270996,21.772722560302736,27.313782152709962C21.870636560302735,27.269275152709962,21.901791560302733,27.158009152709962,21.981905560302735,27.09569915270996C22.079815560302734,27.015587152709962,22.222235560302735,27.00223515270996,22.297895560302734,26.88651815270996C22.391365560302734,26.744097152709962,22.418065560302736,26.672886652709963,22.431415560302735,26.63283075270996C22.444775560302734,26.588324152709962,22.453675560302734,26.58387347270996,22.475925560302734,26.57497215270996C22.609445560302735,26.69068915270996,22.662855560302734,26.83756115270996,22.622795560302734,27.00223515270996Z" fill="#F9CC12" fill-opacity="1"/></g><g><path d="M8.44281920199585,31.728778408813476C8.44726920199585,31.728778408813476,8.44726920199585,31.733178408813476,8.45172020199585,31.737678408813476L8.44726920199585,31.737678408813476C8.238088201995849,31.639678408813477,8.238088201995849,31.639678408813477,8.21138420199585,31.626378408813476C8.082315201995849,31.541778408813478,7.8108251019958495,31.363778408813477,7.75741720199585,31.288078408813476L7.761867861995849,31.288078408813476Q7.766318521995849,31.288078408813476,7.766318521995849,31.292578408813476L8.44281920199585,31.728778408813476ZM34.452517201995846,20.869123408813476L34.23881720199585,21.870518408813478C34.23881720199585,21.874968408813476,34.23441720199585,21.879428408813478,34.23441720199585,21.883878408813477C34.23441720199585,21.843818408813476,34.247717201995854,21.808208408813478,34.25221720199585,21.768158408813477C34.23881720199585,21.794858408813475,34.23441720199585,21.826018408813475,34.22101720199585,21.852718408813477Q34.21211720199585,21.830468408813477,34.23881720199585,21.732548408813475C34.23881720199585,21.728098408813477,34.403517201995854,21.202918408813478,34.29671720199585,21.113908408813476C34.274417201995846,21.122808408813476,34.27001720199585,21.149518408813478,34.25221720199585,21.167318408813475C34.216617201995845,21.131708408813477,34.27891720199585,20.909178408813478,34.28331720199585,20.909178408813478C34.32781720199585,20.77565940881348,34.292217201995854,20.708900408813477,34.25221720199585,20.677745408813475C34.292217201995854,20.548676408813478,34.31451720199585,20.481916408813476,34.33671720199585,20.446310408813478C34.341217201995846,20.441860408813476,34.34561720199585,20.437409408813476,34.35451720199585,20.432959408813478C34.36791720199585,20.446310408813478,34.372417201995844,20.459662408813475,34.36351720199585,20.588732408813478C34.341217201995846,20.935888408813476,34.341217201995846,20.935888408813476,34.341217201995846,20.94923840881348C34.39461720199585,20.740054408813478,34.40801720199585,20.521972408813475,34.48811720199585,20.321692408813476C34.51921720199585,20.335044408813477,34.53701720199585,20.352847408813478,34.51921720199585,20.459662408813475L34.452517201995846,20.869123408813476ZM34.15431720199585,21.198468408813476C34.149817201995845,21.216278408813476,34.14091720199585,21.251878408813475,34.12761720199585,21.283038408813475C34.060817201995846,21.407658408813475,34.060817201995846,21.403198408813477,34.05191720199585,21.389848408813478C34.047517201995845,21.380948408813477,34.047517201995845,21.36759840881348,34.04301720199585,21.358698408813478C34.03861720199585,21.354248408813476,34.02971720199585,21.354248408813476,34.02971720199585,21.349798408813477Q34.02971720199585,21.340898408813477,34.034117201995855,21.314188408813475C34.034117201995855,21.309738408813477,34.06971720199585,21.198468408813476,34.12761720199585,21.122808408813476C34.15431720199585,21.091658408813476,34.15871720199585,21.118358408813478,34.15871720199585,21.136158408813476C34.16321720199585,21.149518408813478,34.15871720199585,21.171768408813477,34.15431720199585,21.198468408813476ZM34.24331720199585,19.956738308813478C34.23441720199585,20.032399408813475,34.19431720199585,20.099159408813478,34.18541720199585,20.174820408813478C34.18101720199585,20.219327408813477,34.19431720199585,20.259383408813477,34.189917201995854,20.303889408813475C34.18541720199585,20.335044408813477,34.17651720199585,20.370649408813478,34.17651720199585,20.401804408813476L34.17651720199585,20.424057408813475C34.17651720199585,20.455212408813477,34.17651720199585,20.490817408813477,34.172117201995846,20.526422408813477C34.16761720199585,20.553126408813476,34.16321720199585,20.597633408813476,34.15431720199585,20.610985408813477C34.13201720199585,20.610985408813477,34.13651720199585,20.637689408813475,34.12761720199585,20.651041408813477C34.11421720199585,20.642140408813475,34.10981720199585,20.606534408813477,34.11421720199585,20.535324408813477C34.11871720199585,20.455212408813477,34.15431720199585,20.384001408813475,34.15431720199585,20.303889408813475C34.149817201995845,20.183722408813477,34.149817201995845,20.183722408813477,34.15431720199585,20.134764408813478C34.15431720199585,20.125863408813476,34.15431720199585,20.112511408813475,34.15871720199585,20.103610408813477Q34.17651720199585,19.965639608813476,34.229917201995846,19.894429068813476Q34.23441720199585,19.889978408813477,34.23881720199585,19.889978408813477C34.23881720199585,19.894429068813476,34.247717201995854,19.903330408813478,34.24331720199585,19.956738308813478Z" fill="#F9CC12" fill-opacity="1"/></g><g><path d="M32.988319931411745,21.77711778411865C32.97941993141174,21.950717784118652,32.894819931411746,22.11091778411865,32.863719931411744,22.28001778411865C32.832519931411746,22.471417784118653,32.86811993141174,22.529217784118654,32.89041993141174,22.564917784118652C32.91711993141174,22.60491778411865,32.94821993141174,22.65391778411865,32.93491993141174,22.747317784118653C32.921519931411744,22.836317784118652,32.85031993141175,22.898717784118652,32.832519931411746,22.98771778411865C32.81031993141174,23.081117784118653,32.814719931411744,23.183517784118653,32.792519931411746,23.27701778411865C32.62331993141174,24.087017784118654,32.52991993141174,24.10481778411865,32.49431993141174,24.113717784118652C32.45871993141174,24.082517784118654,32.489819931411745,24.006917784118652,32.427519931411744,24.002417784118652C32.39191993141174,23.99801778411865,32.39191993141174,23.99801778411865,32.34291993141174,24.10031778411865C32.320719931411745,24.14931778411865,32.29401993141174,24.15821778411865,32.28061993141174,24.15821778411865C32.253919931411744,24.162617784118652,32.24501993141175,24.131517784118653,32.22281993141174,24.131517784118653C32.17831993141174,24.127017784118653,32.13381993141174,24.193817784118654,32.08921993141175,24.14931778411865C32.08041993141174,24.135917784118654,32.06701993141174,24.10031778411865,32.06251993141174,24.064717784118653C32.04921993141174,23.953517784118652,32.09821993141175,23.846617784118653,32.07141993141174,23.735417784118653C32.05811993141174,23.682017784118653,32.01361993141174,23.641917784118654,32.02251993141174,23.584117784118654C32.02251993141174,23.579617784118653,32.07591993141175,23.26361778411865,32.11601993141174,23.170117784118652Q32.147119931411744,23.09891778411865,32.209419931411745,23.09891778411865C32.231719931411746,23.09891778411865,32.253919931411744,23.09891778411865,32.26281993141174,23.072217784118653C32.26281993141174,23.067817784118652,32.26731993141175,23.063317784118652,32.26731993141175,23.058917784118652C32.30291993141174,22.98321778411865,32.29841993141174,22.898717784118652,32.334019931411746,22.82301778411865C32.37411993141174,22.729517784118652,32.45871993141174,22.66721778411865,32.48541993141174,22.564917784118652C32.51651993141174,22.453617784118652,32.512119931411746,22.337917784118652,32.552119931411745,22.226617784118652C32.57881993141174,22.15091778411865,32.645619931411744,22.09751778411865,32.68561993141174,22.030817784118653C32.76131993141174,21.906217784118653,32.747919931411744,21.754817784118654,32.80581993141174,21.625817784118652C32.82361993141174,21.585717784118653,32.832519931411746,21.567917784118652,32.85031993141175,21.55461778411865C32.93041993141174,21.50561778411865,32.99271993141174,21.683617784118653,32.988319931411745,21.77711778411865ZM7.597279931411743,30.985517784118652C5.247329931411743,29.944117784118653,2.4701199314117432,27.20691778411865,0.8500779314117431,19.956817784118652C-0.7699600685882568,12.706657784118653,4.468469931411743,5.883797784118652,7.205619931411743,4.014517784118652L6.765009931411743,4.806735784118652Q6.217579931411743,5.198397784118653,6.7071499314117435,5.6034077841186525C6.965289931411744,5.817037784118652,6.8139699314117435,6.115227784118652,7.000889931411743,6.106327784118653C7.1744699314117435,6.097427784118652,7.423709931411743,5.7057677841186525,7.597279931411743,5.736927784118652C7.7174499314117435,5.754727784118653,7.873219931411743,5.995057784118652,7.9132799314117435,6.110777784118652C7.931079931411743,6.155287784118652,7.8999299314117435,6.257647784118652,7.9132799314117435,6.302157784118652C7.935529931411743,6.382267784118652,8.109109931411744,6.497987784118653,8.100209931411744,6.582547784118653C8.086849931411743,6.724967784118652,7.8198099314117435,6.920797784118653,7.690739931411743,6.983107784118652Q7.494919931411743,7.081017784118652,6.822869931411743,7.103277784118653Q5.812569931411743,7.388117784118652,5.6345399314117435,7.766427784118653Q5.456509931411743,8.144727784118652,5.278489931411743,8.527487784118652Q6.408949931411743,7.632907784118652,6.854019931411743,7.481577784118652C7.299089931411743,7.330257784118652,7.6284399314117435,7.343607784118652,7.619529931411743,7.534987784118652C7.610629931411744,7.717467784118652,6.885179931411743,7.922197784118652,7.1878199314117435,8.126927784118653C7.490469931411743,8.336107784118653,7.797559931411743,8.482977784118653,7.543869931411743,8.870187784118652C7.290189931411743,9.257397784118652,7.0854599314117435,9.297447784118653,7.241229931411743,9.506627784118653C7.396999931411743,9.715817784118652,7.588379931411743,9.982857784118654,6.996439931411743,10.040707784118652C6.404499931411743,10.098567784118654,5.839269931411743,9.862687784118652,5.781409931411743,10.098567784118654C5.7235499314117435,10.334457784118651,5.394199931411743,10.276597784118653,5.514369931411744,10.601497784118653C5.6345399314117435,10.926397784118652,5.7235499314117435,11.224587784118652,5.305189931411743,11.255737784118653C4.891279931411743,11.286897784118652,4.245929931411743,11.166727784118653,4.374999931411743,11.108867784118653C4.504069931411744,11.051007784118653,4.655389931411743,10.770617784118652,4.588629931411743,10.663807784118653C4.504069931411744,10.534737784118652,4.156919931411743,10.579237784118654,4.032299931411743,10.944197784118654C3.907679931411743,11.313597784118652,4.059009931411744,11.055467784118651,3.613939931411743,11.674107784118652C3.1688699314117432,12.292747784118653,2.4923699314117433,12.488577784118652,2.2208799314117433,12.973697784118652C1.949389931411743,13.458817784118652,2.0294999314117432,13.752567784118652,1.8292199314117432,13.801517784118653C1.7224099314117431,13.828227784118653,1.7802699314117432,13.254087784118653,1.5710899314117432,13.214037784118652C1.3574539314117433,13.173977784118652,1.3040459314117432,13.837127784118652,1.335199931411743,14.046317784118653C1.3663549314117431,14.255517784118652,1.6734499314117433,14.411217784118652,1.4242139314117432,15.061017784118652C1.1749769314117433,15.715317784118652,0.8011209314117431,16.44961778411865,1.157173931411743,16.832417784118654C1.5132269314117432,17.219617784118654,1.344101931411743,17.05941778411865,1.6956999314117431,17.68251778411865C2.047309931411743,18.305617784118652,3.0264499314117432,19.716417784118654,3.266789931411743,20.232717784118652C3.5026699314117433,20.749017784118653,2.9196399314117434,20.976017784118653,3.3468999314117434,21.176217784118652C3.769709931411743,21.372117784118654,3.978889931411743,21.349817784118652,4.156919931411743,21.630217784118653C4.334949931411743,21.910617784118653,4.477369931411744,21.66581778411865,4.837869931411743,22.293417784118652C5.202829931411743,22.916517784118653,5.986139931411743,23.232517784118652,6.052899931411743,24.078117784118653C6.119659931411743,24.92371778411865,5.874879931411743,24.848017784118653,5.932729931411743,25.177417784118653C5.990589931411743,25.502317784118652,6.257629931411743,26.281217784118653,6.079609931411743,26.65061778411865C5.901579931411743,27.020017784118654,5.456509931411743,27.015517784118654,5.665689931411743,27.37161778411865C5.874879931411743,27.727617784118653,5.874879931411743,28.226117784118653,5.932729931411743,28.497617784118653C5.9950399314117435,28.764617784118652,7.793109931411744,31.07011778411865,7.597279931411743,30.985517784118652ZM11.322519931411744,6.373367784118653Q11.665219931411743,6.199787784118652,12.248219931411743,6.128577784118653C12.831219931411743,6.057367784118652,12.550819931411743,6.266547784118652,12.938119931411743,6.2487477841186525C13.325319931411743,6.230947784118652,13.605719931411743,6.226497784118653,13.850419931411743,6.368917784118652C14.095219931411743,6.511337784118652,15.114419931411744,6.7917277841186525,14.589219931411742,7.072117784118652C14.064119931411744,7.352517784118652,13.748119931411743,7.227897784118652,13.534419931411744,7.7130177841186525C13.320819931411743,8.198137784118654,13.289719931411744,8.442927784118652,12.622119931411744,8.442927784118652C11.954519931411744,8.442927784118652,11.464919931411742,8.300507784118652,11.148919931411744,8.616497784118653C10.832919931411743,8.932497784118652,10.445699931411744,9.635697784118651,10.218719931411743,9.212887784118653C9.991739931411743,8.790077784118651,9.813709931411744,8.229297784118653,10.218719931411743,7.877687784118653C10.623719931411744,7.526087784118652,11.424819931411744,7.303557784118652,11.131119931411742,6.836237784118652Q10.832919931411743,6.373367784118653,11.322519931411744,6.373367784118653ZM14.647119931411742,25.693717784118654Q14.945319931411744,25.395517784118653,14.869619931411743,25.09731778411865C14.794019931411743,24.799117784118653,14.028519931411743,23.957917784118653,14.077419931411743,23.339317784118652C14.126419931411743,22.72061778411865,14.326719931411743,22.38681778411865,13.952819931411744,22.39131778411865C13.579019931411743,22.395717784118652,13.481019931411744,21.857217784118653,12.715519931411743,22.128717784118653C11.945619931411743,22.395717784118652,10.930819931411744,22.569317784118653,10.312179931411743,21.185117784118653C9.693539931411744,19.801017784118653,9.595629931411743,19.64971778411865,9.791459931411744,19.15121778411865C9.991739931411743,18.65721778411865,10.200919931411743,18.01181778411865,10.094099931411742,17.504517784118654C9.991739931411743,16.99711778411865,10.930819931411744,16.649917784118653,11.402619931411744,16.253817784118652C11.874319931411744,15.857717784118652,12.172519931411744,15.866617784118652,12.840119931411744,15.519517784118653C13.507719931411744,15.172317784118652,13.107219931411743,14.446917784118652,13.699119931411744,14.571517784118653C14.295519931411743,14.696117784118652,15.065519931411743,15.737517784118653,15.190119931411743,15.955617784118653C15.332519931411744,16.196017784118652,15.835419931411742,16.374017784118653,16.022419931411743,16.262717784118653C16.218219931411745,16.142517784118652,16.912519931411744,15.448217784118652,17.224019931411743,15.323617784118653C17.557819931411743,15.194617784118652,17.411019931411744,15.964517784118652,18.087519931411745,16.040217784118653C18.238819931411744,16.058017784118654,18.657219931411742,15.724217784118652,18.768419931411742,15.804317784118652C19.013219931411744,15.977917784118652,18.448019931411743,16.658817784118654,18.412419931411744,17.12611778411865C18.381219931411742,17.504517784118654,19.351519931411744,17.66471778411865,19.471619931411745,17.891717784118654C19.738719931411744,18.421317784118653,19.805419931411745,18.87531778411865,20.09031993141174,19.413817784118653C20.642219931411745,20.45081778411865,20.37071993141174,20.691117784118653,21.879419931411743,20.290617784118652Q23.392719931411744,19.890017784118655,20.780119931411743,23.294817784118653Q20.001319931411743,23.76651778411865,20.072519931411744,24.460817784118653C20.14371993141174,25.15511778411865,20.490819931411743,25.97411778411865,19.92111993141174,26.218817784118652C19.351519931411744,26.468117784118654,19.053319931411743,26.69951778411865,19.080019931411744,27.015517784118654C19.106719931411742,27.331517784118653,18.98211993141174,27.109017784118652,18.585919931411745,27.629717784118654C18.189819931411744,28.150417784118652,18.933119931411742,27.830017784118652,18.091919931411745,28.47091778411865C17.250719931411744,29.116217784118653,15.786519931411743,29.57911778411865,15.563919931411743,28.924817784118652C15.341419931411743,28.270617784118652,13.903819931411743,26.833017784118653,14.647119931411742,25.693717784118654Z" fill="#F9CC12" fill-opacity="1"/></g><g><path d="M34.14551724243164,18.158676900482178C34.15441724243164,17.96287690048218,34.15441724243164,17.762576900482177,34.15441724243164,17.56227690048218C34.15441724243164,15.305806900482178,33.70941724243164,13.147236900482177,32.89491724243164,11.171146900482178C32.55221724243164,10.156396900482179,31.30601724243164,8.095736900482178,30.44701724243164,7.0142291004821775C29.77051724243164,6.876258900482178,29.50351724243164,7.908811900482178,28.82701724243164,8.064586900482178C28.02144724243164,8.251516900482178,27.79890724243164,8.180306900482178,27.046747242431643,8.344976900482177C26.29013724243164,8.509646900482178,26.41920724243164,8.398386900482178,25.836167242431642,8.344976900482177C25.25313724243164,8.291566900482177,23.15687724243164,7.579462900482178,24.06480724243164,8.665426900482178C24.97274724243164,9.751386900482178,21.49677724243164,9.092686900482178,21.55908724243164,9.791436900482179C21.65254724243164,10.908556900482179,23.842277242431642,11.972266900482179,22.19107724243164,12.777836900482178C21.545737242431642,13.093826900482178,20.26839724243164,13.988416900482179,23.42836724243164,14.963106900482178C23.84672724243164,15.092176900482178,24.81251724243164,16.213746900482178,24.38970724243164,16.560896900482177Q23.966897242431642,16.903596900482178,23.78441724243164,16.271606900482176Q22.73850724243164,14.727226900482178,22.02640724243164,15.292456900482177C21.314297242431643,15.857696900482178,21.02945724243164,14.985356900482177,20.188277242431642,15.354766900482177C19.48952824243164,15.661866900482178,18.75961924243164,16.57424690048218,18.95099804243164,17.005976900482178C19.16908024243164,17.491076900482177,19.69425824243164,17.22847690048218,19.93459724243164,17.731376900482175C20.14822724243164,18.17647690048218,20.51762724243164,19.845476900482176,21.10066724243164,19.974576900482177C21.67925724243164,20.103576900482178,22.70735724243164,19.40037690048218,23.02335724243164,20.753376900482177C23.33489724243164,22.101976900482178,24.81251724243164,22.35567690048218,25.52907724243164,22.079676900482177Q26.24117724243164,21.803776900482177,26.82421724243164,19.863276900482177Q26.735207242431642,19.591776900482177,27.62978724243164,19.289176900482175C28.52436724243164,18.986476900482177,30.05091724243164,22.311176900482177,30.22011724243164,22.889776900482175C30.38921724243164,23.468276900482177,30.84311724243164,21.923976900482177,30.79861724243164,20.882476900482178C30.75411724243164,19.84107690048218,30.56281724243164,20.41517690048218,31.10131724243164,19.24907690048218C31.635417242431643,18.08297690048218,32.13831724243164,19.596276900482177,32.93501724243164,20.56647690048218C33.26881724243164,20.97147690048218,33.51801724243164,21.207376900482178,33.740517242431636,21.318676900482178C33.94971724243164,20.406276900482176,34.083217242431644,19.46717690048218,34.13661724243164,18.50587690048218C34.11441724243164,18.385676900482178,34.12331724243164,18.274376900482178,34.14551724243164,18.158676900482178Z" fill="#F9CC12" fill-opacity="1"/></g><g><path d="M13.378739400024415,14.024027922973634Q12.889169400024414,14.607067922973632,12.533119400024415,15.087737922973634C12.177059400024413,15.568407922973634,10.530317400024414,16.409587922973635,10.263277400024414,15.506097922973634C9.996237400024414,14.602617922973632,10.205418900024414,13.623467922973632,10.610429400024413,13.267417922973632C11.015439400024414,12.911367922973632,11.567319400024415,13.489947922973633,11.758699400024414,13.267417922973632C11.950079400024414,13.044887922973633,11.059945400024414,12.105797922973633,11.616279400024414,12.021227922973633C12.172609400024413,11.932217922973633,12.573169400024414,12.065737922973632,13.107249400024415,11.442647922973633C13.641329400024414,10.819557922973633,12.795699400024414,10.285477922973634,13.374289400024415,9.840407922973633C13.952879400024415,9.395347922973633,13.814909400024414,8.460704922973633,15.283619400024413,8.238171922973633C16.752339400024415,8.015638822973633,17.201859400024414,8.692138922973633,18.047479400024415,8.531915922973633C18.893109400024414,8.371691922973632,18.848599400024412,8.416197922973632,19.338179400024416,8.193664922973634C19.827749400024416,7.971132222973633,20.695669400024414,7.873217922973633,20.860269400024414,8.834559922973632C21.024969400024414,9.795907922973633,20.984969400024415,10.418997922973633,21.42996940002441,10.730537922973632C21.875069400024415,11.042087922973632,22.849769400024414,12.288267922973633,21.897269400024413,12.332777922973634C20.944869400024416,12.377287922973633,21.011669400024417,12.083537922973633,21.051669400024416,13.009277922973633C21.091769400024415,13.935017922973632,20.26386940002441,13.262967922973633,21.051669400024416,14.246567922973632C21.839469400024413,15.230157922973632,21.300869400024414,14.887457922973633,20.499769400024412,14.700527922973633C19.698679400024414,14.513607922973634,18.848599400024412,13.507757922973632,18.069739400024414,14.210957922973634C17.295319400024415,14.914157922973633,17.121749400024413,14.415687922973632,16.761239400024415,15.087737922973634C16.400739400024413,15.759787922973633,16.009079400024415,15.937817922973633,15.466099400024415,15.506097922973634C14.927569400024414,15.069937922973633,13.734789400024415,13.347527922973633,13.378739400024415,14.024027922973634Z" fill="#F9CC12" fill-opacity="1"/></g></g></svg>