<svg xmlns="http://www.w3.org/2000/svg" xmlns:xlink="http://www.w3.org/1999/xlink" fill="none" version="1.1" width="41.27972412109375" height="43.79998779296875" viewBox="0 0 41.27972412109375 43.79998779296875"><defs><filter id="master_svg0_1_0053" filterUnits="objectBoundingBox" color-interpolation-filters="sRGB" x="-8" y="-8" width="45.279733657836914" height="47.79999542236328"><feFlood flood-opacity="0" result="BackgroundImageFix"/><feColorMatrix in="SourceAlpha" type="matrix" values="0 0 0 0 0 0 0 0 0 0 0 0 0 0 0 0 0 0 127 0"/><feOffset dy="0" dx="0"/><feGaussianBlur stdDeviation="2"/><feColorMatrix type="matrix" values="0 0 0 0 0.8627451062202454 0 0 0 0 0.7882353067398071 0 0 0 0 0.47843137383461 0 0 0 1 0"/><feBlend mode="normal" in2="BackgroundImageFix" result="effect1_dropShadow"/><feBlend mode="normal" in="SourceGraphic" in2="effect1_dropShadow" result="shape"/></filter></defs><g filter="url(#master_svg0_1_0053)"><path d="M6,18.1619C6,11.45579,12.56742,6,20.6399,6C28.7123,6,35.2797,11.45579,35.2797,18.1619C35.2797,22.6225,32.297200000000004,26.7504,27.6235,28.8663L27.6235,34.0182C27.6235,36.1035,25.3311,37.8,22.5136,37.8L18.766,37.8C15.94846,37.8,13.65615,36.1035,13.65615,34.0182L13.65598,28.8664C8.9824,26.7506,6,22.6226,6,18.1619ZM28.3458,18.0576C28.3458,18.627200000000002,28.9017,19.089,29.5873,19.089C30.2729,19.089,30.8289,18.627200000000002,30.8289,18.0576C30.8289,17.5659,30.7783,17.0763,30.6777,16.5943C30.0808,13.7375,27.8006,11.35609,24.5785,10.223980000000001C23.9475,10.002379999999999,23.2186,10.247630000000001,22.9515,10.77222C22.6843,11.29681,22.9797,11.90199,23.6114,12.12391C26.0522,12.981580000000001,27.7794,14.78466,28.2312,16.947C28.3075,17.3138,28.3459,17.6854,28.3458,18.0576ZM24.2914,17.4585C24.5534,17.4585,24.7959,17.5491,24.9291,17.6968C25.0623,17.8445,25.0662,18.0273,24.9394,18.1774L19.7728,24.2997C19.601599999999998,24.5024,19.2352,24.5976,18.8982,24.5267C18.5612,24.4559,18.3479,24.2389,18.389200000000002,24.0089L19.0967,20.0659L16.9884,20.0659C16.768,20.0659,16.5591,20.0016,16.4184,19.8905C16.2778,19.7795,16.219900000000003,19.6333,16.2607,19.4916L17.7417,14.34493C17.8076,14.11591,18.113300000000002,13.950009999999999,18.4694,13.950009999999999L24.0231,13.950009999999999C24.292,13.94997,24.5397,14.04534,24.6703,14.19914C24.801,14.35288,24.794,14.5409,24.6521,14.69031L22.0231,17.4585L24.2914,17.4585ZM18.5015,32.230199999999996L22.778,32.230199999999996C23.4636,32.230199999999996,24.0195,31.7684,24.0195,31.1988C24.0195,30.6292,23.4636,30.1674,22.778,30.1674L18.5015,30.1674C17.8159,30.1674,17.259999999999998,30.6292,17.259999999999998,31.1988C17.259999999999998,31.7684,17.8159,32.230199999999996,18.5015,32.230199999999996ZM18.5015,35.5542L22.778,35.5542C23.4636,35.5542,24.0196,35.0924,24.0195,34.522800000000004C24.0195,33.953199999999995,23.4636,33.4914,22.778,33.4914L18.5015,33.4914C17.8159,33.4914,17.259999999999998,33.953199999999995,17.259999999999998,34.522800000000004C17.259999999999998,35.0924,17.8159,35.5542,18.5015,35.5542Z" fill-rule="evenodd" fill="#FFCE84" fill-opacity="1"/></g></svg>