<svg xmlns="http://www.w3.org/2000/svg" xmlns:xlink="http://www.w3.org/1999/xlink" fill="none" version="1.1" width="41.27972412109375" height="43.79998779296875" viewBox="0 0 41.27972412109375 43.79998779296875"><defs><filter id="master_svg0_1_0106" filterUnits="objectBoundingBox" color-interpolation-filters="sRGB" x="-8" y="-8" width="45.279733657836914" height="47.79999542236328"><feFlood flood-opacity="0" result="BackgroundImageFix"/><feColorMatrix in="SourceAlpha" type="matrix" values="0 0 0 0 0 0 0 0 0 0 0 0 0 0 0 0 0 0 127 0"/><feOffset dy="0" dx="0"/><feGaussianBlur stdDeviation="2"/><feColorMatrix type="matrix" values="0 0 0 0 0.8627451062202454 0 0 0 0 0.7882353067398071 0 0 0 0 0.47843137383461 0 0 0 1 0"/><feBlend mode="normal" in2="BackgroundImageFix" result="effect1_dropShadow"/><feBlend mode="normal" in="SourceGraphic" in2="effect1_dropShadow" result="shape"/></filter></defs><g filter="url(#master_svg0_1_0106)"><path d="M6,18.1619C6,11.45579,12.56742,6,20.6399,6C28.7123,6,35.2797,11.45579,35.2797,18.1619C35.2797,22.6225,32.297200000000004,26.7504,27.6235,28.8663L27.6235,34.0182C27.6235,36.1035,25.3311,37.8,22.5136,37.8L18.766,37.8C15.94846,37.8,13.65615,36.1035,13.65615,34.0182L13.65598,28.8664C8.9824,26.7506,6,22.6226,6,18.1619ZM28.3458,18.0576C28.3458,18.627200000000002,28.9017,19.089,29.5873,19.089C30.2729,19.089,30.8289,18.627200000000002,30.8289,18.0576C30.8289,17.5659,30.7783,17.0763,30.6777,16.5943C30.0808,13.7375,27.8006,11.35609,24.5785,10.223980000000001C23.9475,10.002379999999999,23.2186,10.247630000000001,22.9515,10.77222C22.6843,11.29681,22.9797,11.90199,23.6114,12.12391C26.0522,12.981580000000001,27.7794,14.78466,28.2312,16.947C28.3075,17.3138,28.3459,17.6854,28.3458,18.0576ZM16.999000000000002,22.263L19.456,22.263L19.456,23.5215Q19.4814,24.0418,19.793300000000002,24.2959Q20.1052,24.55,20.665300000000002,24.55Q21.798299999999998,24.55,21.8493,23.5215L21.8493,22.2388L24.2935,22.2509Q24.6245,22.2267,24.8154,22.015Q25.0064,21.8032,25.0318,21.488599999999998Q25.0064,21.1861,24.8154,20.9683Q24.6245,20.750500000000002,24.2935,20.726300000000002L21.8493,20.726300000000002L21.8493,19.9881L24.2808,19.976Q24.6117,19.9518,24.8091,19.734Q25.0064,19.516199999999998,25.0318,19.2016Q25.0064,18.8991,24.8154,18.7055Q24.6245,18.5119,24.2935,18.4877L22.4221,18.4877L24.3953,15.43837Q24.6499,15.12376,24.6499,14.77284Q24.6117,14.51873,24.529,14.36143Q24.4463,14.20412,24.3253,14.11942Q24.2044,14.03472,24.0452,13.99841Q23.8861,13.96211,23.6952,13.950009999999999Q23.3896,13.98631,23.1478,14.14362Q22.9059,14.30093,22.7531,14.50663L20.627200000000002,17.8948L18.6921,14.53083Q18.5394,14.32513,18.2975,14.14967Q18.0556,13.97421,17.7501,13.950009999999999Q17.2282,14.01051,17.0372,14.22227Q16.8463,14.43403,16.782600000000002,14.77284Q16.7699,15.03905,16.8844,15.26291Q16.999000000000002,15.48677,17.1263,15.63198L18.8322,18.4877L16.999000000000002,18.4877Q16.6553,18.5119,16.4707,18.7055Q16.286099999999998,18.8991,16.2479,19.2016Q16.286099999999998,19.516199999999998,16.4707,19.721899999999998Q16.6553,19.927599999999998,16.999000000000002,19.9518L19.456,19.963900000000002L19.456,20.726300000000002L16.999000000000002,20.726300000000002Q16.6553,20.750500000000002,16.4707,20.9441Q16.286099999999998,21.137700000000002,16.2479,21.4402Q16.286099999999998,21.7427,16.4707,21.9908Q16.6553,22.2388,16.999000000000002,22.263ZM18.5015,32.230199999999996L22.778,32.230199999999996C23.4636,32.230199999999996,24.0195,31.7684,24.0195,31.1988C24.0195,30.6292,23.4636,30.1674,22.778,30.1674L18.5015,30.1674C17.8159,30.1674,17.259999999999998,30.6292,17.259999999999998,31.1988C17.259999999999998,31.7684,17.8159,32.230199999999996,18.5015,32.230199999999996ZM18.5015,35.5542L22.778,35.5542C23.4636,35.5542,24.0196,35.0924,24.0195,34.522800000000004C24.0195,33.953199999999995,23.4636,33.4914,22.778,33.4914L18.5015,33.4914C17.8159,33.4914,17.259999999999998,33.953199999999995,17.259999999999998,34.522800000000004C17.259999999999998,35.0924,17.8159,35.5542,18.5015,35.5542Z" fill-rule="evenodd" fill="#FFCE84" fill-opacity="1"/></g></svg>