<svg xmlns="http://www.w3.org/2000/svg" xmlns:xlink="http://www.w3.org/1999/xlink" fill="none" version="1.1" width="41.27978515625" height="43.79998779296875" viewBox="0 0 41.27978515625 43.79998779296875"><defs><filter id="master_svg0_1_0123" filterUnits="objectBoundingBox" color-interpolation-filters="sRGB" x="-8" y="-8" width="45.279733657836914" height="47.79999542236328"><feFlood flood-opacity="0" result="BackgroundImageFix"/><feColorMatrix in="SourceAlpha" type="matrix" values="0 0 0 0 0 0 0 0 0 0 0 0 0 0 0 0 0 0 127 0"/><feOffset dy="0" dx="0"/><feGaussianBlur stdDeviation="2"/><feColorMatrix type="matrix" values="0 0 0 0 0.8627451062202454 0 0 0 0 0.7882353067398071 0 0 0 0 0.47843137383461 0 0 0 1 0"/><feBlend mode="normal" in2="BackgroundImageFix" result="effect1_dropShadow"/><feBlend mode="normal" in="SourceGraphic" in2="effect1_dropShadow" result="shape"/></filter></defs><g filter="url(#master_svg0_1_0123)"><path d="M6,18.1619C6,11.45579,12.56742,6,20.6399,6C28.7123,6,35.2797,11.45579,35.2797,18.1619C35.2797,22.6225,32.297200000000004,26.7504,27.6235,28.8663L27.6235,34.0182C27.6235,36.1035,25.3311,37.8,22.5136,37.8L18.766,37.8C15.94846,37.8,13.65615,36.1035,13.65615,34.0182L13.65598,28.8664C8.9824,26.7506,6,22.6226,6,18.1619ZM28.3458,18.0576C28.3458,18.627200000000002,28.9017,19.089,29.5873,19.089C30.2729,19.089,30.8289,18.627200000000002,30.8289,18.0576C30.8289,17.5659,30.7783,17.0763,30.6777,16.5943C30.0808,13.7375,27.8006,11.35609,24.5785,10.223980000000001C23.9475,10.002379999999999,23.2186,10.247630000000001,22.9515,10.77222C22.6843,11.29681,22.9797,11.90199,23.6114,12.12391C26.0522,12.981580000000001,27.7794,14.78466,28.2312,16.947C28.3075,17.3138,28.3459,17.6854,28.3458,18.0576ZM19.758200000000002,14.72144L18.6199,14.72144C18.5066,14.72144,18.4128,14.64015,18.4128,14.54032L18.4128,14.13114C18.4131,14.03144,18.505499999999998,13.950610000000001,18.6199,13.950009999999999L22.4089,13.950009999999999C22.5234,13.95031,22.6161,14.03132,22.6161,14.13114L22.6161,14.54032C22.6161,14.64014,22.5234,14.72114,22.4089,14.72144L21.2732,14.72144C21.1589,14.72114,21.066000000000003,14.80184,21.066000000000003,14.90148L21.066000000000003,15.20864C21.066000000000003,15.30807,20.973599999999998,15.38867,20.8595,15.38867L20.1712,15.38867C20.057299999999998,15.38867,19.9653,15.30847,19.9653,15.20864L19.9653,14.90148C19.9653,14.80184,19.872500000000002,14.72114,19.758200000000002,14.72144ZM25.8169,17.145400000000002L26.2874,17.145400000000002C26.4013,17.146,26.4938,17.2257,26.4958,17.3249L26.4958,20.6278C26.4951,20.7268,26.4029,20.8067,26.2893,20.8067L25.8187,20.8067C25.7055,20.8067,25.6116,20.744500000000002,25.6116,20.6648C25.6116,20.587400000000002,25.519,20.521900000000002,25.4057,20.521900000000002L24.9514,20.521900000000002C24.8208,20.528399999999998,24.6975,20.576700000000002,24.6054,20.6578L23.4634,21.764699999999998C23.3716,21.8452,23.2491,21.8933,23.1192,21.9L19.0304,21.9C18.900199999999998,21.893700000000003,18.7768,21.847,18.682499999999997,21.7685L17.6481,20.8062C17.5699,20.733,17.4122,20.675800000000002,17.2989,20.675800000000002L16.6994,20.675800000000002C16.586199999999998,20.675800000000002,16.4929,20.593899999999998,16.4929,20.493499999999997L16.4929,19.636499999999998C16.4929,19.5366,16.3997,19.4553,16.2864,19.4553L15.87528,19.4553C15.76139,19.4553,15.66815,19.5366,15.66815,19.636499999999998L15.66815,20.627200000000002C15.66746,20.7262,15.5752,20.8062,15.46164,20.8062L14.99107,20.8062C14.87655,20.8062,14.78394,20.7254,14.78394,20.627200000000002L14.78394,17.3249C14.78428,17.2255,14.87702,17.1451,14.99107,17.145400000000002L15.46102,17.145400000000002C15.57482,17.145400000000002,15.66718,17.2257,15.66752,17.3249L15.66752,18.3156C15.66787,18.4152,15.7605,18.4957,15.87465,18.4957L16.285800000000002,18.4957C16.3998,18.4957,16.4923,18.415100000000002,16.4923,18.3156L16.4923,17.456899999999997C16.493000000000002,17.3577,16.585,17.2775,16.6988,17.276899999999998L16.9072,17.276899999999998C17.0363,17.270200000000003,17.1573,17.2195,17.2438,17.1356L18.1869,16.116500000000002C18.273400000000002,16.0328,18.3945,15.98239,18.5235,15.97625L22.377,15.97625C22.5069,15.98261,22.6296,16.0304,22.7218,16.110500000000002L23.3889,16.776C23.4808,16.856299999999997,23.6032,16.904400000000003,23.7331,16.9113L24.5353,16.9113C24.6491,16.9113,24.7415,16.9916,24.7418,17.0908L24.7418,17.502200000000002C24.7425,17.6017,24.8354,17.682000000000002,24.9496,17.6817L25.4039,17.6817C25.5174,17.6814,25.6094,17.6012,25.6097,17.502200000000002L25.6097,17.3249C25.6108,17.2257,25.7031,17.145699999999998,25.8169,17.145400000000002ZM20.196199999999997,20.7783L22.0885,19.2977C22.2688,19.1569,22.2181,19.0412,21.9759,19.0412L21.247500000000002,19.0412C21.006,19.0412,20.9027,18.890700000000002,21.020400000000002,18.7046L21.7331,17.5709C21.8489,17.3844,21.7456,17.236,21.5041,17.236L19.996000000000002,17.236C19.7515,17.2394,19.5489,17.4024,19.525399999999998,17.6146L19.409,18.9589C19.3921,19.1684,19.549799999999998,19.4226,19.7594,19.5246L20.1505,19.7134C20.363799999999998,19.8172,20.4458,20.0487,20.337,20.2393L20.0704,20.691000000000003C19.9603,20.8809,20.0166,20.918,20.196199999999997,20.7783ZM18.5015,32.230199999999996L22.778,32.230199999999996C23.4636,32.230199999999996,24.0195,31.7684,24.0195,31.1988C24.0195,30.6292,23.4636,30.1674,22.778,30.1674L18.5015,30.1674C17.8159,30.1674,17.259999999999998,30.6292,17.259999999999998,31.1988C17.259999999999998,31.7684,17.8159,32.230199999999996,18.5015,32.230199999999996ZM18.5015,35.5542L22.778,35.5542C23.4636,35.5542,24.0196,35.0924,24.0195,34.522800000000004C24.0195,33.953199999999995,23.4636,33.4914,22.778,33.4914L18.5015,33.4914C17.8159,33.4914,17.259999999999998,33.953199999999995,17.259999999999998,34.522800000000004C17.259999999999998,35.0924,17.8159,35.5542,18.5015,35.5542Z" fill-rule="evenodd" fill="#FFCE84" fill-opacity="1"/></g></svg>