<svg xmlns="http://www.w3.org/2000/svg" xmlns:xlink="http://www.w3.org/1999/xlink" fill="none" version="1.1" width="48" height="48" viewBox="0 0 48 48"><defs><linearGradient x1="0.5" y1="0" x2="0.5" y2="1" id="master_svg0_1_0482"><stop offset="0%" stop-color="#7BFFE9" stop-opacity="1"/><stop offset="100%" stop-color="#666666" stop-opacity="0"/></linearGradient></defs><g><path d="M14.2036,47.9923C13.8989,47.9667,13.604,47.8774,13.3461,47.7324C2.34755,42.1766,-1.3913,36.6192,0.447309,28.5672C1.06183,26.0331,2.32631,23.8308,3.55535,21.7009C4.95573,19.2705,6.2734,16.9697,6.44476,14.4823C6.49793,13.7361,7.10064,13.109,7.93378,12.9484C8.76692,12.7774,9.61779,13.1194,10.0314,13.7723C10.9591,15.2389,11.5027,16.4877,11.8336,17.7366C16.8147,11.5803,18.9419,6.27903,18.1738,1.93644C18.0733,1.36641,18.3097,0.791199,18.806,0.412907C19.3023,0.0346146,19.9819,-0.0949376,20.6141,0.0708892C21.01,0.174531,29.2941,2.45983,34.2398,12.7204C34.1394,11.9793,33.9148,11.2538,33.5899,10.6372C33.2235,9.94795,33.4303,9.12918,34.0921,8.64206C34.7539,8.14976,35.7052,8.11349,36.4202,8.55396C39.1264,10.2122,48.5155,19.3172,47.9778,29.5984C47.5996,36.7963,42.589,42.8646,33.0758,47.6321C32.37,47.9875,31.5099,47.8998,30.9144,47.4733C30.2206,46.9831,29.9926,46.1147,30.4168,45.3933C34.3521,38.724,32.4081,29.4066,26.4224,23.7374C26.0325,26.8363,24.7266,30.7177,21.849,33.5886C21.2759,34.1586,20.3423,34.3192,19.5682,33.9876C18.7942,33.6559,18.3687,32.9045,18.5283,32.1635C18.5519,32.0598,18.5696,31.9614,18.5873,31.8577C18.1501,32.6091,17.636,33.3968,17.0333,34.1897C14.7891,36.942,13.0594,39.8414,16.0063,45.4199C16.3752,45.9293,16.4185,46.5963,16.0525,47.1553C15.9177,47.3569,15.7432,47.5258,15.543,47.6584C15.4371,47.7296,15.3211,47.7922,15.1957,47.8445C14.9503,47.9446,14.6829,47.9963,14.4147,47.9998C14.4052,47.9999,14.3957,48,14.3862,48C14.3251,48,14.2641,47.9974,14.2036,47.9923ZM35.8051,42.0146C37.8399,33.5352,33.8445,23.7198,25.5952,18.6538C24.9571,18.2599,24.1062,18.2496,23.4503,18.6227C22.7944,19.001,22.4635,19.685,22.6172,20.3587C22.9126,21.6542,22.7117,24.2971,21.7367,26.8985C21.1872,25.6548,20.5373,24.9448,20.4841,24.8826C20.0114,24.3748,19.2373,24.152,18.5164,24.3178C17.7897,24.4836,17.2401,25.0018,17.1101,25.6496C17.1042,25.6807,16.4129,28.9558,13.8898,32.2775C11.7236,34.938,9.9726,37.9949,10.855,42.3282C3.97847,37.883,3.13319,33.9127,4.19941,29.246C4.70166,27.1577,5.8066,25.2403,6.97064,23.2141C7.47289,22.3383,7.98696,21.4522,8.44784,20.5401C8.50102,21.0376,8.53648,21.561,8.57193,22.1466C8.6192,22.8358,9.13918,23.4369,9.8955,23.6494C10.64,23.8618,11.4732,23.6494,11.9695,23.1104C18.5224,16.0162,21.8786,9.8754,22.1386,4.44975C25.1284,6.14948,29.9028,10.0568,32.3963,18.431C32.5676,18.9907,33.0462,19.4363,33.6785,19.6074C34.3166,19.7835,34.9962,19.6592,35.4984,19.2809C36.9579,18.1875,37.7556,16.581,38.0156,14.8606C41.0231,18.3274,44.4444,23.7893,44.1489,29.4326C43.9003,34.1757,41.0974,38.393,35.8051,42.0146Z" fill-rule="evenodd" fill="url(#master_svg0_1_0482)" fill-opacity="1"/></g></svg>