<svg xmlns="http://www.w3.org/2000/svg" xmlns:xlink="http://www.w3.org/1999/xlink" fill="none" version="1.1" width="48" height="48" viewBox="0 0 48 48"><defs><linearGradient x1="0.5" y1="0" x2="0.5" y2="1" id="master_svg0_1_0522"><stop offset="0%" stop-color="#79F3E0" stop-opacity="1"/><stop offset="100%" stop-color="#000000" stop-opacity="0"/></linearGradient></defs><g><path d="M39.1342,11.0592L40.5458,8.5472C45.1378,12.432,48,17.92,48,24C48,35.7824,37.2551,45.3328,24,45.3328C22.2499,45.334,20.5047,45.1656,18.7947,44.8304L20.9636,42.4736C21.9556,42.6016,22.9689,42.6656,24,42.6656C35.5982,42.6656,45.0009,34.3088,45.0009,24C45.0009,18.976,42.7662,14.4144,39.1342,11.0592ZM14.4533,7.3696C7.65334,10.4592,2.99911,16.7456,2.99911,24C2.99911,30.1264,6.32,35.5632,11.4489,38.9664L10.6667,41.744C4.23645,37.9152,0,31.3968,0,24C0,14.704,6.69156,6.7936,16.0267,3.872L14.4533,7.3696ZM20.9991,0L42,0L31.5004,18.6672L38.9991,18.6672L12,48L18,26.6672L8.99911,26.6672L21.0009,0L20.9991,0Z" fill="url(#master_svg0_1_0522)" fill-opacity="1"/></g></svg>