<svg xmlns="http://www.w3.org/2000/svg" xmlns:xlink="http://www.w3.org/1999/xlink" fill="none" version="1.1" width="1876" height="63" viewBox="0 0 1876 63"><defs><clipPath id="master_svg0_6_26685"><rect x="0" y="0" width="1876" height="63" rx="0"/></clipPath><linearGradient x1="0" y1="0.5" x2="1.0096725225448608" y2="0.5" id="master_svg1_1_2405"><stop offset="0%" stop-color="#0E5263" stop-opacity="1"/><stop offset="99.99996423721313%" stop-color="#0A1E29" stop-opacity="1"/></linearGradient><linearGradient x1="0" y1="0.5" x2="1" y2="0.5" id="master_svg2_1_2407"><stop offset="0%" stop-color="#86B6C2" stop-opacity="1"/><stop offset="100%" stop-color="#86B6C2" stop-opacity="0"/></linearGradient><filter id="master_svg3_1_2452" filterUnits="objectBoundingBox" color-interpolation-filters="sRGB" x="-8" y="-8" width="86.18550109863281" height="50.239131927490234"><feFlood flood-opacity="0" result="BackgroundImageFix"/><feBlend mode="normal" in="SourceGraphic" in2="BackgroundImageFix" result="shape"/><feGaussianBlur stdDeviation="2" result="effect1_foregroundBlur"/></filter><linearGradient x1="0.5" y1="0" x2="0.5" y2="1" id="master_svg4_1_2443"><stop offset="0%" stop-color="#0D3A48" stop-opacity="1"/><stop offset="100%" stop-color="#0A7783" stop-opacity="1"/></linearGradient><filter id="master_svg5_1_2449" filterUnits="objectBoundingBox" color-interpolation-filters="sRGB" x="-8" y="-8" width="86.18550109863281" height="50.239131927490234"><feFlood flood-opacity="0" result="BackgroundImageFix"/><feBlend mode="normal" in="SourceGraphic" in2="BackgroundImageFix" result="shape"/><feGaussianBlur stdDeviation="2" result="effect1_foregroundBlur"/></filter><linearGradient x1="0.5" y1="0" x2="0.5" y2="1" id="master_svg6_1_2443"><stop offset="0%" stop-color="#0D3A48" stop-opacity="1"/><stop offset="100%" stop-color="#0A7783" stop-opacity="1"/></linearGradient><filter id="master_svg7_1_2447" filterUnits="objectBoundingBox" color-interpolation-filters="sRGB" x="-8" y="-8" width="86.18550109863281" height="50.239131927490234"><feFlood flood-opacity="0" result="BackgroundImageFix"/><feBlend mode="normal" in="SourceGraphic" in2="BackgroundImageFix" result="shape"/><feGaussianBlur stdDeviation="2" result="effect1_foregroundBlur"/></filter><linearGradient x1="0.5" y1="0" x2="0.5" y2="1" id="master_svg8_1_2443"><stop offset="0%" stop-color="#0D3A48" stop-opacity="1"/><stop offset="100%" stop-color="#0A7783" stop-opacity="1"/></linearGradient><filter id="master_svg9_1_2448" filterUnits="objectBoundingBox" color-interpolation-filters="sRGB" x="-8" y="-8" width="86.18550109863281" height="50.239131927490234"><feFlood flood-opacity="0" result="BackgroundImageFix"/><feBlend mode="normal" in="SourceGraphic" in2="BackgroundImageFix" result="shape"/><feGaussianBlur stdDeviation="2" result="effect1_foregroundBlur"/></filter><linearGradient x1="0.5" y1="0" x2="0.5" y2="1" id="master_svga_1_2443"><stop offset="0%" stop-color="#0D3A48" stop-opacity="1"/><stop offset="100%" stop-color="#0A7783" stop-opacity="1"/></linearGradient><filter id="master_svgb_1_2456" filterUnits="objectBoundingBox" color-interpolation-filters="sRGB" x="-8" y="-8" width="86.18550109863281" height="50.239131927490234"><feFlood flood-opacity="0" result="BackgroundImageFix"/><feBlend mode="normal" in="SourceGraphic" in2="BackgroundImageFix" result="shape"/><feGaussianBlur stdDeviation="2" result="effect1_foregroundBlur"/></filter><linearGradient x1="0.5" y1="0" x2="0.5" y2="1" id="master_svgc_1_2443"><stop offset="0%" stop-color="#0D3A48" stop-opacity="1"/><stop offset="100%" stop-color="#0A7783" stop-opacity="1"/></linearGradient><filter id="master_svgd_1_2445" filterUnits="objectBoundingBox" color-interpolation-filters="sRGB" x="-8" y="-8" width="86.18550109863281" height="50.239131927490234"><feFlood flood-opacity="0" result="BackgroundImageFix"/><feBlend mode="normal" in="SourceGraphic" in2="BackgroundImageFix" result="shape"/><feGaussianBlur stdDeviation="2" result="effect1_foregroundBlur"/></filter><linearGradient x1="0.5" y1="0" x2="0.5" y2="1" id="master_svge_1_2443"><stop offset="0%" stop-color="#0D3A48" stop-opacity="1"/><stop offset="100%" stop-color="#0A7783" stop-opacity="1"/></linearGradient><filter id="master_svgf_1_2451" filterUnits="objectBoundingBox" color-interpolation-filters="sRGB" x="-8" y="-8" width="86.18550109863281" height="50.239131927490234"><feFlood flood-opacity="0" result="BackgroundImageFix"/><feBlend mode="normal" in="SourceGraphic" in2="BackgroundImageFix" result="shape"/><feGaussianBlur stdDeviation="2" result="effect1_foregroundBlur"/></filter><linearGradient x1="0.5" y1="0" x2="0.5" y2="1" id="master_svgg_1_2443"><stop offset="0%" stop-color="#0D3A48" stop-opacity="1"/><stop offset="100%" stop-color="#0A7783" stop-opacity="1"/></linearGradient><filter id="master_svgh_1_2450" filterUnits="objectBoundingBox" color-interpolation-filters="sRGB" x="-8" y="-8" width="86.18550109863281" height="50.239131927490234"><feFlood flood-opacity="0" result="BackgroundImageFix"/><feBlend mode="normal" in="SourceGraphic" in2="BackgroundImageFix" result="shape"/><feGaussianBlur stdDeviation="2" result="effect1_foregroundBlur"/></filter><linearGradient x1="0.5" y1="0" x2="0.5" y2="1" id="master_svgi_1_2443"><stop offset="0%" stop-color="#0D3A48" stop-opacity="1"/><stop offset="100%" stop-color="#0A7783" stop-opacity="1"/></linearGradient><filter id="master_svgj_1_2441" filterUnits="objectBoundingBox" color-interpolation-filters="sRGB" x="-8" y="-8" width="86.18550109863281" height="50.239131927490234"><feFlood flood-opacity="0" result="BackgroundImageFix"/><feBlend mode="normal" in="SourceGraphic" in2="BackgroundImageFix" result="shape"/><feGaussianBlur stdDeviation="2" result="effect1_foregroundBlur"/></filter><linearGradient x1="0.5" y1="0" x2="0.5" y2="1" id="master_svgk_1_2443"><stop offset="0%" stop-color="#0D3A48" stop-opacity="1"/><stop offset="100%" stop-color="#0A7783" stop-opacity="1"/></linearGradient><filter id="master_svgl_1_2446" filterUnits="objectBoundingBox" color-interpolation-filters="sRGB" x="-8" y="-8" width="86.18550109863281" height="50.239131927490234"><feFlood flood-opacity="0" result="BackgroundImageFix"/><feBlend mode="normal" in="SourceGraphic" in2="BackgroundImageFix" result="shape"/><feGaussianBlur stdDeviation="2" result="effect1_foregroundBlur"/></filter><linearGradient x1="0.5" y1="0" x2="0.5" y2="1" id="master_svgm_1_2443"><stop offset="0%" stop-color="#0D3A48" stop-opacity="1"/><stop offset="100%" stop-color="#0A7783" stop-opacity="1"/></linearGradient><filter id="master_svgn_1_2444" filterUnits="objectBoundingBox" color-interpolation-filters="sRGB" x="-8" y="-8" width="86.18550109863281" height="50.239131927490234"><feFlood flood-opacity="0" result="BackgroundImageFix"/><feBlend mode="normal" in="SourceGraphic" in2="BackgroundImageFix" result="shape"/><feGaussianBlur stdDeviation="2" result="effect1_foregroundBlur"/></filter><linearGradient x1="0.5" y1="0" x2="0.5" y2="1" id="master_svgo_1_2443"><stop offset="0%" stop-color="#0D3A48" stop-opacity="1"/><stop offset="100%" stop-color="#0A7783" stop-opacity="1"/></linearGradient><filter id="master_svgp_1_2455" filterUnits="objectBoundingBox" color-interpolation-filters="sRGB" x="-8" y="-8" width="86.18550109863281" height="50.239131927490234"><feFlood flood-opacity="0" result="BackgroundImageFix"/><feBlend mode="normal" in="SourceGraphic" in2="BackgroundImageFix" result="shape"/><feGaussianBlur stdDeviation="2" result="effect1_foregroundBlur"/></filter><linearGradient x1="0.5" y1="0" x2="0.5" y2="1" id="master_svgq_1_2443"><stop offset="0%" stop-color="#0D3A48" stop-opacity="1"/><stop offset="100%" stop-color="#0A7783" stop-opacity="1"/></linearGradient><filter id="master_svgr_1_2453" filterUnits="objectBoundingBox" color-interpolation-filters="sRGB" x="-8" y="-8" width="86.18550109863281" height="50.239131927490234"><feFlood flood-opacity="0" result="BackgroundImageFix"/><feBlend mode="normal" in="SourceGraphic" in2="BackgroundImageFix" result="shape"/><feGaussianBlur stdDeviation="2" result="effect1_foregroundBlur"/></filter><linearGradient x1="0.5" y1="0" x2="0.5" y2="1" id="master_svgs_1_2443"><stop offset="0%" stop-color="#0D3A48" stop-opacity="1"/><stop offset="100%" stop-color="#0A7783" stop-opacity="1"/></linearGradient><filter id="master_svgt_1_2454" filterUnits="objectBoundingBox" color-interpolation-filters="sRGB" x="-8" y="-8" width="86.18550109863281" height="50.239131927490234"><feFlood flood-opacity="0" result="BackgroundImageFix"/><feBlend mode="normal" in="SourceGraphic" in2="BackgroundImageFix" result="shape"/><feGaussianBlur stdDeviation="2" result="effect1_foregroundBlur"/></filter><linearGradient x1="0.5" y1="0" x2="0.5" y2="1" id="master_svgu_1_2443"><stop offset="0%" stop-color="#0D3A48" stop-opacity="1"/><stop offset="100%" stop-color="#0A7783" stop-opacity="1"/></linearGradient><filter id="master_svgv_1_2355" filterUnits="objectBoundingBox" color-interpolation-filters="sRGB" x="-32" y="-32" width="427.4824523925781" height="48.21739101409912"><feFlood flood-opacity="0" result="BackgroundImageFix"/><feColorMatrix in="SourceAlpha" type="matrix" values="0 0 0 0 0 0 0 0 0 0 0 0 0 0 0 0 0 0 127 0"/><feOffset dy="4" dx="4"/><feGaussianBlur stdDeviation="5"/><feColorMatrix type="matrix" values="0 0 0 0 0 0 0 0 0 1 0 0 0 0 1 0 0 0 1 0"/><feBlend mode="normal" in2="BackgroundImageFix" result="effect1_dropShadow"/><feColorMatrix in="SourceAlpha" type="matrix" values="0 0 0 0 0 0 0 0 0 0 0 0 0 0 0 0 0 0 127 0"/><feOffset dy="0" dx="0"/><feGaussianBlur stdDeviation="4"/><feColorMatrix type="matrix" values="0 0 0 0 0 0 0 0 0 0.9818176627159119 0 0 0 0 1 0 0 0 1 0"/><feBlend mode="normal" in2="effect1_dropShadow" result="effect2_dropShadow"/><feBlend mode="normal" in="SourceGraphic" in2="effect2_dropShadow" result="shape"/></filter><linearGradient x1="0" y1="0.5" x2="1" y2="0.5" id="master_svgw_1_2357"><stop offset="0%" stop-color="#0C3C4A" stop-opacity="1"/><stop offset="50%" stop-color="#578F9C" stop-opacity="1"/><stop offset="100%" stop-color="#B1FFFF" stop-opacity="1"/></linearGradient><filter id="master_svgx_1_2338" filterUnits="objectBoundingBox" color-interpolation-filters="sRGB" x="-32" y="-32" width="380.692138671875" height="42.73913049697876"><feFlood flood-opacity="0" result="BackgroundImageFix"/><feColorMatrix in="SourceAlpha" type="matrix" values="0 0 0 0 0 0 0 0 0 0 0 0 0 0 0 0 0 0 127 0"/><feOffset dy="4" dx="4"/><feGaussianBlur stdDeviation="5"/><feColorMatrix type="matrix" values="0 0 0 0 0 0 0 0 0 1 0 0 0 0 1 0 0 0 1 0"/><feBlend mode="normal" in2="BackgroundImageFix" result="effect1_dropShadow"/><feColorMatrix in="SourceAlpha" type="matrix" values="0 0 0 0 0 0 0 0 0 0 0 0 0 0 0 0 0 0 127 0"/><feOffset dy="0" dx="0"/><feGaussianBlur stdDeviation="4"/><feColorMatrix type="matrix" values="0 0 0 0 0 0 0 0 0 0.9818176627159119 0 0 0 0 1 0 0 0 1 0"/><feBlend mode="normal" in2="effect1_dropShadow" result="effect2_dropShadow"/><feBlend mode="normal" in="SourceGraphic" in2="effect2_dropShadow" result="shape"/></filter><linearGradient x1="0" y1="0.5" x2="1" y2="0.5" id="master_svgy_1_2340"><stop offset="0%" stop-color="#578F9C" stop-opacity="1"/><stop offset="100%" stop-color="#B1FFFF" stop-opacity="1"/></linearGradient></defs><g clip-path="url(#master_svg0_6_26685)"><g><g><path d="M383.0958833694458,43.8261L485.4498833694458,43.8261L523.4668833694458,63L1874.5358833694459,63L1874.5358833694459,0L407.2576833694458,0C422.4891833694458,0.547908,409.5967833694458,14.6859,401.5841833694458,23.4728C399.5824833694458,25.6679,397.8852833694458,27.529,397.0071833694458,28.7609Q388.2211133694458,38.3478,383.0958833694458,43.8261Z" fill="url(#master_svg1_1_2405)" fill-opacity="1"/><path d="M485.3308833694458,44.3261L523.3478833694458,63.5L1875.0358833694459,63.5L1875.0358833694459,-0.5L407.2576833694458,-0.5L407.2396833694458,0.499677Q412.3195833694458,0.682412,413.4809833694458,2.89547Q414.4795833694458,4.7983,412.6890833694458,8.42548Q411.1833833694458,11.4758,407.6055833694458,15.8591Q405.5167833694458,18.4181,401.2146833694458,23.1359Q397.5326833694458,27.1737,396.6181833694458,28.4453Q387.8491533694458,38.0135,382.7307613694458,43.4845L381.9434033694458,44.3261L485.3308833694458,44.3261ZM523.5858833694458,62.5L485.5688833694458,43.3261L384.2473333694458,43.3261Q389.2452133694458,37.9704,397.3758833694458,29.0987L397.3965833694458,29.0761L397.4143833694458,29.0511Q398.2749833694458,27.8437,401.9535833694458,23.8097Q406.2741833694458,19.0717,408.3802833694458,16.4914Q412.0297833694458,12.0202,413.5857833694458,8.86812Q415.6016833694458,4.78442,414.3664833694458,2.43078Q413.7280833694458,1.21431,412.2481833694458,0.5L1874.0358833694459,0.5L1874.0358833694459,62.5L523.5858833694458,62.5Z" fill-rule="evenodd" fill="url(#master_svg2_1_2407)" fill-opacity="1"/></g><g><g filter="url(#master_svg3_1_2452)"><path d="M1001.6055908203125,62.9999699798584L1031.1573908203125,62.9999699798584L1071.7910908203125,28.7608699798584L1043.7168908203125,28.7608699798584L1001.6055908203125,62.9999699798584Z" fill="url(#master_svg4_1_2443)" fill-opacity="0.30000001192092896"/></g><g filter="url(#master_svg5_1_2449)"><path d="M1063.0179023742676,62.9999699798584L1092.5697023742675,62.9999699798584L1133.2034023742676,28.7608699798584L1105.1292023742676,28.7608699798584L1063.0179023742676,62.9999699798584Z" fill="url(#master_svg6_1_2443)" fill-opacity="0.30000001192092896"/></g><g filter="url(#master_svg7_1_2447)"><path d="M1125.8924179077148,62.9999699798584L1155.4442179077148,62.9999699798584L1196.077917907715,28.7608699798584L1168.0037179077149,28.7608699798584L1125.8924179077148,62.9999699798584Z" fill="url(#master_svg8_1_2443)" fill-opacity="0.30000001192092896"/></g><g filter="url(#master_svg9_1_2448)"><path d="M1187.3047332763672,62.9999699798584L1216.8565332763671,62.9999699798584L1257.4902332763672,28.7608699798584L1229.4160332763672,28.7608699798584L1187.3047332763672,62.9999699798584Z" fill="url(#master_svga_1_2443)" fill-opacity="0.30000001192092896"/></g><g filter="url(#master_svgb_1_2456)"><path d="M1248.717041015625,62.9999699798584L1278.268841015625,62.9999699798584L1318.902541015625,28.7608699798584L1290.828341015625,28.7608699798584L1248.717041015625,62.9999699798584Z" fill="url(#master_svgc_1_2443)" fill-opacity="0.30000001192092896"/></g><g filter="url(#master_svgd_1_2445)"><path d="M1311.591552734375,62.9999699798584L1341.143352734375,62.9999699798584L1381.777052734375,28.7608699798584L1353.702852734375,28.7608699798584L1311.591552734375,62.9999699798584Z" fill="url(#master_svge_1_2443)" fill-opacity="0.30000001192092896"/></g><g filter="url(#master_svgf_1_2451)"><path d="M1373.0038757324219,62.9999699798584L1402.5556757324218,62.9999699798584L1443.189375732422,28.7608699798584L1415.115175732422,28.7608699798584L1373.0038757324219,62.9999699798584Z" fill="url(#master_svgg_1_2443)" fill-opacity="0.30000001192092896"/></g><g filter="url(#master_svgh_1_2450)"><path d="M1434.4161682128906,62.9999699798584L1463.9679682128906,62.9999699798584L1504.6016682128907,28.7608699798584L1476.5274682128907,28.7608699798584L1434.4161682128906,62.9999699798584Z" fill="url(#master_svgi_1_2443)" fill-opacity="0.30000001192092896"/></g><g filter="url(#master_svgj_1_2441)"><path d="M1495.8284912109375,62.9999699798584L1525.3802912109375,62.9999699798584L1566.0139912109375,28.7608699798584L1537.9397912109375,28.7608699798584L1495.8284912109375,62.9999699798584Z" fill="url(#master_svgk_1_2443)" fill-opacity="0.30000001192092896"/></g><g filter="url(#master_svgl_1_2446)"><path d="M1558.7030029296875,62.9999699798584L1588.2548029296875,62.9999699798584L1628.8885029296875,28.7608699798584L1600.8143029296875,28.7608699798584L1558.7030029296875,62.9999699798584Z" fill="url(#master_svgm_1_2443)" fill-opacity="0.30000001192092896"/></g><g filter="url(#master_svgn_1_2444)"><path d="M1620.1152954101562,62.9999699798584L1649.6670954101562,62.9999699798584L1690.3007954101563,28.7608699798584L1662.2265954101563,28.7608699798584L1620.1152954101562,62.9999699798584Z" fill="url(#master_svgo_1_2443)" fill-opacity="0.30000001192092896"/></g><g filter="url(#master_svgp_1_2455)"><path d="M1681.5276489257812,62.9999699798584L1711.0794489257812,62.9999699798584L1751.7131489257813,28.7608699798584L1723.6389489257813,28.7608699798584L1681.5276489257812,62.9999699798584Z" fill="url(#master_svgq_1_2443)" fill-opacity="0.30000001192092896"/></g><g filter="url(#master_svgr_1_2453)"><path d="M1744.4021606445312,62.9999699798584L1773.9539606445312,62.9999699798584L1814.5876606445313,28.7608699798584L1786.5134606445313,28.7608699798584L1744.4021606445312,62.9999699798584Z" fill="url(#master_svgs_1_2443)" fill-opacity="0.30000001192092896"/></g><g filter="url(#master_svgt_1_2454)"><path d="M1805.814453125,62.9999699798584L1835.366253125,62.9999699798584L1875.999953125,28.7608699798584L1847.925753125,28.7608699798584L1805.814453125,62.9999699798584Z" fill="url(#master_svgu_1_2443)" fill-opacity="0.30000001192092896"/></g></g><g transform="matrix(-1,0,0,1,1628.8885498046875,0)" filter="url(#master_svgv_1_2355)"><path d="M814.4442749023438,13.69565602416992L1200.8682749023437,17.804346024169924Q1201.9262749023437,17.804346024169924,1201.9262749023437,13.69565602416992Q1201.9262749023437,9.586956024169922,1200.8682749023437,9.586956024169922L814.4442749023438,13.69565602416992Z" fill="url(#master_svgw_1_2357)" fill-opacity="1"/></g><g><g><path d="M378.70928955078125,57.52171987915039L384.55807955078126,57.52171987915039L393.33128955078126,46.56521987915039L387.48247955078125,46.56521987915039L378.70928955078125,57.52171987915039Z" fill="#FFBF00" fill-opacity="1"/></g><g><path d="M386.0202794075012,57.52171987915039L391.86906940750123,57.52171987915039L400.64227940750123,46.56521987915039L394.7934694075012,46.56521987915039L386.0202794075012,57.52171987915039Z" fill="#FFBF00" fill-opacity="0.8999999761581421"/></g><g><path d="M393.3312692642212,57.52171987915039L399.1800592642212,57.52171987915039L407.9532692642212,46.56521987915039L402.1044592642212,46.56521987915039L393.3312692642212,57.52171987915039Z" fill="#FFBF00" fill-opacity="0.800000011920929"/></g><g><path d="M400.6422595977783,57.52171987915039L406.49104959777833,57.52171987915039L415.26425959777833,46.56521987915039L409.4154495977783,46.56521987915039L400.6422595977783,57.52171987915039Z" fill="#FFBF00" fill-opacity="0.699999988079071"/></g><g><path d="M407.95324897766113,57.52171987915039L413.80203897766114,57.52171987915039L422.57524897766115,46.56521987915039L416.72643897766113,46.56521987915039L407.95324897766113,57.52171987915039Z" fill="#FFBF00" fill-opacity="0.6000000238418579"/></g><g><path d="M415.2642402648926,57.52171987915039L421.1130302648926,57.52171987915039L429.8862402648926,46.56521987915039L424.0374302648926,46.56521987915039L415.2642402648926,57.52171987915039Z" fill="#FFBF00" fill-opacity="0.5"/></g><g><path d="M422.5752296447754,57.52171987915039L428.4240196447754,57.52171987915039L437.1972296447754,46.56521987915039L431.3484196447754,46.56521987915039L422.5752296447754,57.52171987915039Z" fill="#FFBF00" fill-opacity="0.4000000059604645"/></g><g><path d="M429.8862190246582,57.52171987915039L435.7350090246582,57.52171987915039L444.5082190246582,46.56521987915039L438.6594090246582,46.56521987915039L429.8862190246582,57.52171987915039Z" fill="#FFBF00" fill-opacity="0.30000001192092896"/></g><g><path d="M437.197208404541,57.52171987915039L443.045998404541,57.52171987915039L451.81920840454103,46.56521987915039L445.970398404541,46.56521987915039L437.197208404541,57.52171987915039Z" fill="#FFBF00" fill-opacity="0.20000000298023224"/></g><g><path d="M444.50819396972656,57.52171987915039L450.35698396972657,57.52171987915039L459.1301939697266,46.56521987915039L453.28138396972656,46.56521987915039L444.50819396972656,57.52171987915039Z" fill="#FFBF00" fill-opacity="0.10000000149011612"/></g></g></g><g><g><g><path d="M0,0.0300974L0,56.1015L342.003,56.1015Q358.219,67.8695,367.801,59.5627Q395.81,29.7964,408.34,14.5671Q415.333,6.06742,413.373,2.52717Q411.82,-0.275794,404.655,0.0300932L0,0.0300974Z" fill="#00E2FF" fill-opacity="0.20000000298023224"/><path d="M0.5,55.6015L342.166,55.6015L342.297,55.6968Q358.175,67.2198,367.454,59.2014Q395.43,29.4708,407.954,14.2494Q414.058,6.83037,413.199,3.4411Q412.378,0.200854,404.676,0.529638L404.665,0.530093L0.5,0.530097L0.5,55.6015ZM-0.5,-0.469903L-0.5,56.6015L341.841,56.6015Q358.285,68.4732,368.128,59.9405L368.148,59.9238L368.165,59.9053Q396.177,30.1364,408.726,14.8848Q415.152,7.07503,414.169,3.19536Q413.149,-0.827861,404.655,-0.470356L404.644,-0.469907L-0.5,-0.469903Z" fill-rule="evenodd" fill="#86B6C2" fill-opacity="1"/></g><g filter="url(#master_svgx_1_2338)"><path d="M1.4621978998184204,56.152178032226566L341.22319789981844,57.521738032226565Q342.1541978998184,57.521738032226565,342.1541978998184,56.152178032226566Q342.1541978998184,54.78260803222656,341.22319789981844,54.78260803222656L1.4621978998184204,56.152178032226566Z" fill="url(#master_svgy_1_2340)" fill-opacity="1"/></g></g></g></g></svg>